<svg width="463" height="463" viewBox="0 0 463 463" fill="none" xmlns="http://www.w3.org/2000/svg">
<path d="M369.462 0.104492H93.1716C41.8055 0.104492 0.165039 41.745 0.165039 93.1111V369.401C0.165039 420.767 41.8055 462.408 93.1716 462.408H369.462C420.828 462.408 462.468 420.767 462.468 369.401V93.1111C462.468 41.745 420.828 0.104492 369.462 0.104492Z" fill="black"/>
<path d="M274.938 114.865C274.943 120.6 277.231 126.1 281.301 130.155C285.37 134.211 290.887 136.492 296.642 136.497C302.396 136.492 307.914 134.211 311.983 130.155C316.052 126.1 318.34 120.6 318.346 114.865C318.34 109.129 316.052 103.63 311.983 99.5745C307.914 95.5188 302.396 93.2379 296.642 93.2324C290.887 93.2379 285.37 95.5188 281.301 99.5745C277.231 103.63 274.943 109.129 274.938 114.865Z" fill="white"/>
<path d="M144.287 347.509C144.293 353.245 146.581 358.744 150.65 362.8C154.719 366.855 160.237 369.136 165.991 369.142C171.746 369.136 177.263 366.855 181.332 362.8C185.401 358.744 187.69 353.245 187.695 347.509C187.69 341.774 185.401 336.275 181.332 332.219C177.263 328.163 171.746 325.882 165.991 325.877C160.237 325.882 154.719 328.163 150.65 332.219C146.581 336.275 144.293 341.774 144.287 347.509Z" fill="white"/>
<path d="M273.335 231.188C273.341 236.924 275.629 242.423 279.699 246.478C283.768 250.534 289.285 252.815 295.04 252.82C300.794 252.815 306.312 250.534 310.381 246.478C314.45 242.423 316.738 236.924 316.744 231.188C316.738 225.452 314.45 219.953 310.381 215.898C306.312 211.842 300.794 209.561 295.04 209.556C289.285 209.561 283.768 211.842 279.699 215.898C275.629 219.953 273.341 225.452 273.335 231.188Z" fill="white"/>
<path d="M77.3066 231.188C77.3122 236.924 79.6006 242.423 83.6697 246.478C87.7389 250.534 93.2562 252.815 99.0108 252.82C104.765 252.815 110.283 250.534 114.352 246.478C118.421 242.423 120.709 236.924 120.715 231.188C120.709 225.452 118.421 219.953 114.352 215.898C110.283 211.842 104.765 209.561 99.0108 209.556C93.2562 209.561 87.7389 211.842 83.6697 215.898C79.6006 219.953 77.3122 225.452 77.3066 231.188Z" fill="white"/>
<path d="M184.052 127.012C184.948 125.598 186.178 124.424 187.635 123.592C189.092 122.761 190.73 122.298 192.408 122.244H205.129C206.808 122.295 208.448 122.756 209.905 123.588C211.362 124.419 212.592 125.595 213.485 127.012C215.476 129.913 218.148 132.287 221.267 133.927C224.387 135.567 227.861 136.424 231.388 136.423C234.615 136.429 237.803 135.713 240.716 134.33C243.63 132.946 246.196 130.929 248.225 128.428C250.281 125.902 251.741 122.947 252.496 119.783C253.252 116.619 253.284 113.326 252.59 110.147C251.711 106.006 249.624 102.216 246.592 99.2531C243.559 96.2898 239.716 94.2853 235.545 93.4911C231.28 92.6705 226.867 93.14 222.873 94.8393C218.878 96.5387 215.486 99.3901 213.13 103.027C212.194 104.358 210.94 105.436 209.481 106.163C208.022 106.89 206.405 107.243 204.774 107.191H192.638C191.009 107.234 189.394 106.877 187.937 106.15C186.48 105.424 185.224 104.351 184.282 103.027C181.902 99.4297 178.501 96.6211 174.512 94.9597C170.523 93.2983 166.128 92.8595 161.888 93.6993C157.719 94.4986 153.879 96.5049 150.847 99.4673C147.815 102.43 145.727 106.217 144.842 110.356C144.159 113.534 144.197 116.825 144.952 119.988C145.707 123.15 147.161 126.105 149.208 128.636C151.243 131.136 153.813 133.151 156.73 134.534C159.646 135.918 162.836 136.634 166.066 136.631C169.626 136.622 173.129 135.74 176.266 134.063C179.402 132.385 182.077 129.964 184.052 127.012Z" fill="url(#paint0_linear_6_4735)"/>
<path d="M216.716 185.308C217.612 183.893 218.842 182.719 220.299 181.888C221.755 181.057 223.394 180.594 225.072 180.54H237.793C239.472 180.59 241.112 181.052 242.569 181.883C244.026 182.715 245.256 183.891 246.149 185.308C248.14 188.209 250.811 190.583 253.931 192.223C257.051 193.862 260.524 194.719 264.051 194.718C267.279 194.724 270.467 194.009 273.38 192.625C276.294 191.242 278.859 189.225 280.888 186.723C282.944 184.197 284.404 181.243 285.16 178.079C285.916 174.914 285.948 171.621 285.254 168.443C284.375 164.302 282.288 160.512 279.256 157.549C276.223 154.585 272.38 152.581 268.208 151.787C263.944 150.966 259.531 151.436 255.537 153.135C251.542 154.834 248.149 157.686 245.794 161.322C244.858 162.654 243.604 163.731 242.145 164.459C240.686 165.186 239.068 165.539 237.438 165.487H225.301C223.673 165.53 222.058 165.172 220.601 164.446C219.144 163.72 217.888 162.647 216.946 161.322C214.566 157.725 211.165 154.917 207.176 153.255C203.187 151.594 198.792 151.155 194.552 151.995C190.383 152.794 186.543 154.8 183.511 157.763C180.479 160.725 178.391 164.512 177.506 168.651C176.823 171.83 176.861 175.121 177.616 178.283C178.371 181.446 179.825 184.4 181.872 186.932C183.907 189.431 186.477 191.447 189.394 192.83C192.31 194.213 195.5 194.93 198.73 194.927C202.29 194.918 205.793 194.036 208.929 192.358C212.066 190.681 214.74 188.259 216.716 185.308Z" fill="url(#paint1_linear_6_4735)"/>
<path d="M154.903 298.211C153.447 299.042 152.216 300.216 151.32 301.63C149.345 304.582 146.671 307.003 143.534 308.681C140.397 310.359 136.894 311.241 133.334 311.249C130.104 311.252 126.914 310.536 123.998 309.153C121.081 307.769 118.512 305.754 116.476 303.254C114.43 300.723 112.975 297.768 112.22 294.606C111.465 291.443 111.427 288.153 112.111 284.974C112.995 280.835 115.083 277.048 118.115 274.085C121.147 271.123 124.987 269.117 129.156 268.318C133.396 267.478 137.791 267.916 141.78 269.578C145.769 271.239 149.17 274.048 151.55 277.645C152.493 278.97 153.748 280.042 155.205 280.769C156.663 281.495 158.277 281.852 159.906 281.809H172.043C173.673 281.861 175.29 281.508 176.749 280.781C178.208 280.054 179.462 278.976 180.398 277.645C182.754 274.008 186.147 271.157 190.141 269.458C194.135 267.758 198.548 267.289 202.813 268.109C206.984 268.904 210.827 270.908 213.86 273.871C215.157 275.139 216.281 276.558 217.212 278.09C218.109 279.211 219.241 280.126 220.531 280.769C221.988 281.495 223.603 281.852 225.231 281.809H237.368C238.998 281.861 240.616 281.508 242.075 280.781C243.534 280.054 244.788 278.976 245.724 277.645C248.079 274.008 251.472 271.157 255.467 269.458C259.461 267.758 263.874 267.289 268.138 268.109C272.31 268.904 276.153 270.908 279.185 273.871C282.218 276.835 284.305 280.625 285.184 284.766C285.878 287.944 285.846 291.237 285.09 294.401C284.334 297.566 282.874 300.52 280.818 303.046C278.789 305.548 276.224 307.564 273.31 308.948C270.396 310.332 267.209 311.047 263.981 311.041C260.454 311.042 256.981 310.185 253.861 308.545C250.741 306.905 248.07 304.532 246.079 301.63C245.185 300.213 243.956 299.037 242.499 298.206C241.042 297.374 239.401 296.913 237.723 296.862H225.001C223.324 296.917 221.685 297.38 220.229 298.211C218.772 299.042 217.542 300.216 216.646 301.63C214.67 304.582 211.996 307.003 208.859 308.681C205.723 310.359 202.22 311.241 198.66 311.249C195.43 311.252 192.24 310.536 189.323 309.153C186.407 307.769 183.837 305.754 181.802 303.254C181.077 302.358 180.427 301.409 179.856 300.416C179.097 299.535 178.191 298.786 177.173 298.206C175.716 297.374 174.076 296.913 172.398 296.862H159.676C157.998 296.917 156.36 297.38 154.903 298.211Z" fill="url(#paint2_linear_6_4735)"/>
<path d="M252.96 356.372C251.504 357.204 250.274 358.378 249.377 359.792C247.402 362.744 244.728 365.165 241.591 366.843C238.454 368.52 234.951 369.402 231.392 369.411C228.162 369.414 224.972 368.698 222.055 367.314C219.138 365.931 216.569 363.916 214.534 361.416C212.487 358.885 211.033 355.93 210.277 352.768C209.522 349.605 209.485 346.314 210.168 343.136C211.052 338.997 213.141 335.21 216.172 332.247C219.204 329.285 223.044 327.279 227.214 326.479C231.454 325.639 235.849 326.078 239.837 327.74C243.826 329.401 247.227 332.21 249.607 335.807C250.55 337.131 251.805 338.204 253.263 338.93C254.72 339.657 256.334 340.014 257.963 339.971H270.1C271.73 340.023 273.348 339.67 274.806 338.943C276.265 338.216 277.519 337.138 278.456 335.807C280.811 332.17 284.204 329.319 288.198 327.619C292.193 325.92 296.606 325.45 300.87 326.271C305.041 327.065 308.885 329.07 311.917 332.033C314.95 334.996 317.037 338.786 317.916 342.927C318.61 346.106 318.577 349.399 317.822 352.563C317.066 355.727 315.606 358.682 313.55 361.208C311.521 363.71 308.956 365.726 306.042 367.11C303.128 368.493 299.94 369.209 296.713 369.203C293.186 369.204 289.712 368.347 286.593 366.707C283.473 365.067 280.802 362.693 278.811 359.792C277.917 358.375 276.688 357.199 275.23 356.368C273.773 355.536 272.133 355.075 270.455 355.024H257.733C256.056 355.078 254.417 355.541 252.96 356.372Z" fill="url(#paint3_linear_6_4735)"/>
<path d="M341.917 231.187C341.922 236.923 344.211 242.422 348.28 246.477C352.349 250.533 357.866 252.814 363.621 252.819C369.376 252.814 374.893 250.533 378.962 246.477C383.031 242.422 385.32 236.923 385.325 231.187C385.32 225.451 383.031 219.952 378.962 215.897C374.893 211.841 369.376 209.56 363.621 209.555C357.866 209.56 352.349 211.841 348.28 215.897C344.211 219.952 341.922 225.451 341.917 231.187Z" fill="url(#paint4_linear_6_4735)"/>
<path d="M149.048 246.477C144.979 242.422 142.691 236.923 142.685 231.187C142.691 225.451 144.979 219.952 149.048 215.897C153.117 211.841 158.635 209.56 164.389 209.555C170.144 209.56 175.661 211.841 179.73 215.897C183.8 219.952 186.088 225.451 186.094 231.187C186.088 236.923 183.8 242.422 179.73 246.477C175.661 250.533 170.144 252.814 164.389 252.819C158.635 252.814 153.117 250.533 149.048 246.477Z" fill="url(#paint5_linear_6_4735)"/>
<path d="M307.531 173.025C307.537 178.761 309.825 184.26 313.894 188.315C317.963 192.371 323.481 194.652 329.235 194.657C334.99 194.652 340.507 192.371 344.576 188.315C348.646 184.26 350.934 178.761 350.94 173.025C350.934 167.289 348.646 161.79 344.576 157.735C340.507 153.679 334.99 151.398 329.235 151.393C323.481 151.398 317.963 153.679 313.894 157.735C309.825 161.79 307.537 167.289 307.531 173.025Z" fill="white"/>
<path d="M111.692 173.025C111.698 178.761 113.986 184.26 118.055 188.315C122.124 192.371 127.642 194.652 133.396 194.657C139.151 194.652 144.668 192.371 148.737 188.315C152.807 184.26 155.095 178.761 155.1 173.025C155.095 167.289 152.807 161.79 148.737 157.735C144.668 153.679 139.151 151.398 133.396 151.393C127.642 151.398 122.124 153.679 118.055 157.735C113.986 161.79 111.698 167.289 111.692 173.025Z" fill="white"/>
<path d="M307.531 289.348C307.537 295.084 309.825 300.583 313.894 304.639C317.963 308.694 323.481 310.975 329.235 310.981C334.99 310.975 340.507 308.694 344.576 304.639C348.646 300.583 350.934 295.084 350.94 289.348C350.934 283.613 348.646 278.114 344.576 274.058C340.507 270.002 334.99 267.721 329.235 267.716C323.481 267.721 317.963 270.002 313.894 274.058C309.825 278.114 307.537 283.613 307.531 289.348Z" fill="white"/>
<defs>
<linearGradient id="paint0_linear_6_4735" x1="111.625" y1="80.8668" x2="335.625" y2="384.902" gradientUnits="userSpaceOnUse">
<stop stop-color="#00FAFF"/>
<stop offset="1" stop-color="#8BFF95"/>
</linearGradient>
<linearGradient id="paint1_linear_6_4735" x1="111.625" y1="80.8668" x2="335.625" y2="384.902" gradientUnits="userSpaceOnUse">
<stop stop-color="#00FAFF"/>
<stop offset="1" stop-color="#8BFF95"/>
</linearGradient>
<linearGradient id="paint2_linear_6_4735" x1="111.625" y1="80.8668" x2="335.625" y2="384.902" gradientUnits="userSpaceOnUse">
<stop stop-color="#00FAFF"/>
<stop offset="1" stop-color="#8BFF95"/>
</linearGradient>
<linearGradient id="paint3_linear_6_4735" x1="111.625" y1="80.8668" x2="335.625" y2="384.902" gradientUnits="userSpaceOnUse">
<stop stop-color="#00FAFF"/>
<stop offset="1" stop-color="#8BFF95"/>
</linearGradient>
<linearGradient id="paint4_linear_6_4735" x1="111.625" y1="80.8668" x2="335.625" y2="384.902" gradientUnits="userSpaceOnUse">
<stop stop-color="#00FAFF"/>
<stop offset="1" stop-color="#8BFF95"/>
</linearGradient>
<linearGradient id="paint5_linear_6_4735" x1="111.625" y1="80.8668" x2="335.625" y2="384.902" gradientUnits="userSpaceOnUse">
<stop stop-color="#00FAFF"/>
<stop offset="1" stop-color="#8BFF95"/>
</linearGradient>
</defs>
</svg>
