<svg width="200" height="201" viewBox="0 0 200 201" fill="none" xmlns="http://www.w3.org/2000/svg">
<rect width="200" height="200" transform="translate(0 0.945312)" fill="black"/>
<path d="M159.764 0.945312H40.2362C18.0144 0.945312 0 18.9597 0 41.1815V160.709C0 182.931 18.0144 200.945 40.2362 200.945H159.764C181.986 200.945 200 182.931 200 160.709V41.1815C200 18.9597 181.986 0.945312 159.764 0.945312Z" fill="black"/>
<path d="M118.871 50.5929C118.873 53.0742 119.864 55.4532 121.624 57.2078C123.384 58.9623 125.771 59.9491 128.261 59.9515C130.75 59.9491 133.137 58.9623 134.897 57.2078C136.658 55.4532 137.648 53.0742 137.65 50.5929C137.648 48.1116 136.658 45.7326 134.897 43.9781C133.137 42.2235 130.75 41.2368 128.261 41.2344C125.771 41.2368 123.384 42.2235 121.624 43.9781C119.864 45.7326 118.873 48.1116 118.871 50.5929V50.5929Z" fill="white"/>
<path d="M62.3496 151.238C62.352 153.72 63.342 156.099 65.1024 157.853C66.8628 159.608 69.2496 160.595 71.7392 160.597C74.2287 160.595 76.6156 159.608 78.376 157.853C80.1364 156.099 81.1264 153.72 81.1288 151.238C81.1264 148.757 80.1364 146.378 78.376 144.624C76.6156 142.869 74.2287 141.882 71.7392 141.88C69.2496 141.882 66.8628 142.869 65.1024 144.624C63.342 146.378 62.352 148.757 62.3496 151.238V151.238Z" fill="white"/>
<path d="M118.178 100.916C118.18 103.397 119.17 105.776 120.931 107.531C122.691 109.286 125.078 110.272 127.568 110.275C130.057 110.272 132.444 109.286 134.204 107.531C135.965 105.776 136.955 103.397 136.957 100.916C136.955 98.4348 135.965 96.0559 134.204 94.3013C132.444 92.5468 130.057 91.56 127.568 91.5576C125.078 91.56 122.691 92.5468 120.931 94.3013C119.17 96.0559 118.18 98.4348 118.178 100.916V100.916Z" fill="white"/>
<path d="M33.3728 100.916C33.3752 103.397 34.3652 105.776 36.1256 107.531C37.886 109.286 40.2728 110.272 42.7624 110.275C45.2519 110.272 47.6388 109.286 49.3992 107.531C51.1596 105.776 52.1496 103.397 52.152 100.916C52.1496 98.4348 51.1596 96.0559 49.3992 94.3013C47.6388 92.5468 45.2519 91.56 42.7624 91.5576C40.2728 91.56 37.886 92.5468 36.1256 94.3013C34.3652 96.0559 33.3752 98.4348 33.3728 100.916V100.916Z" fill="white"/>
<path d="M79.5526 55.8477C79.9403 55.2358 80.4725 54.7279 81.1026 54.3683C81.7328 54.0088 82.4417 53.8085 83.1674 53.785H88.671C89.3971 53.807 90.1066 54.0066 90.737 54.3663C91.3674 54.726 91.8993 55.2347 92.2859 55.8477C93.1473 57.1029 94.3029 58.1298 95.6525 58.8392C97.0021 59.5487 98.5049 59.9193 100.031 59.919C101.427 59.9214 102.806 59.612 104.067 59.0135C105.327 58.4149 106.437 57.5425 107.315 56.4602C108.204 55.3674 108.836 54.0893 109.163 52.7204C109.49 51.3515 109.504 49.9268 109.203 48.5518C108.823 46.7603 107.92 45.1207 106.608 43.8387C105.296 42.5568 103.634 41.6896 101.829 41.346C99.9843 40.991 98.0751 41.1941 96.3471 41.9293C94.6191 42.6644 93.1512 43.898 92.1323 45.4713C91.7273 46.0472 91.1847 46.5135 90.5536 46.828C89.9225 47.1426 89.2227 47.2954 88.5174 47.2728H83.2668C82.5622 47.2914 81.8638 47.1368 81.2334 46.8226C80.6029 46.5084 80.0598 46.0443 79.6519 45.4713C78.6225 43.9151 77.151 42.7001 75.4254 41.9813C73.6998 41.2626 71.7985 41.0727 69.9642 41.4361C68.1605 41.7819 66.4991 42.6498 65.1875 43.9314C63.876 45.213 62.9724 46.8514 62.5898 48.6419C62.2943 50.0171 62.3105 51.4407 62.6373 52.8089C62.964 54.177 63.5931 55.4552 64.4786 56.5502C65.359 57.6318 66.4707 58.5036 67.7325 59.102C68.9943 59.7004 70.3742 60.0103 71.7716 60.009C73.3116 60.0053 74.827 59.6237 76.1841 58.898C77.5411 58.1722 78.698 57.1246 79.5526 55.8477Z" fill="white"/>
<path d="M93.6835 81.0673C94.0712 80.4554 94.6034 79.9475 95.2336 79.588C95.8637 79.2284 96.5726 79.0281 97.2983 79.0047H102.802C103.528 79.0266 104.238 79.2262 104.868 79.5859C105.498 79.9456 106.03 80.4544 106.417 81.0673C107.278 82.3225 108.434 83.3494 109.783 84.0589C111.133 84.7683 112.636 85.1389 114.162 85.1386C115.558 85.1411 116.937 84.8317 118.197 84.2331C119.458 83.6346 120.568 82.7621 121.446 81.6798C122.335 80.587 122.967 79.3089 123.294 77.94C123.621 76.5711 123.634 75.1464 123.334 73.7714C122.954 71.9799 122.051 70.3403 120.739 69.0584C119.427 67.7764 117.765 66.9092 115.96 66.5656C114.115 66.2106 112.206 66.4137 110.478 67.1489C108.75 67.884 107.282 69.1176 106.263 70.691C105.858 71.2669 105.316 71.7331 104.684 72.0477C104.053 72.3622 103.354 72.515 102.648 72.4924H97.3977C96.6931 72.511 95.9947 72.3564 95.3643 72.0422C94.7338 71.728 94.1907 71.264 93.7829 70.691C92.7534 69.1348 91.2819 67.9197 89.5563 67.201C87.8308 66.4822 85.9294 66.2924 84.0951 66.6557C82.2914 67.0015 80.63 67.8694 79.3184 69.151C78.0069 70.4326 77.1034 72.071 76.7208 73.8615C76.4252 75.2367 76.4414 76.6603 76.7682 78.0285C77.0949 79.3967 77.724 80.6749 78.6095 81.7699C79.4899 82.8514 80.6016 83.7232 81.8634 84.3216C83.1252 84.92 84.5052 85.2299 85.9025 85.2287C87.4425 85.2249 88.958 84.8434 90.315 84.1176C91.672 83.3918 92.8289 82.3443 93.6835 81.0673Z" fill="white"/>
<path d="M66.9423 129.911C66.3122 130.271 65.78 130.779 65.3922 131.39C64.5376 132.667 63.3807 133.715 62.0237 134.441C60.6667 135.166 59.1513 135.548 57.6112 135.552C56.2139 135.553 54.8339 135.243 53.5721 134.645C52.3104 134.046 51.1987 133.174 50.3183 132.093C49.4328 130.998 48.8037 129.72 48.4769 128.352C48.1502 126.983 48.134 125.56 48.4295 124.185C48.8121 122.394 49.7156 120.756 51.0272 119.474C52.3387 118.193 54.0002 117.325 55.8038 116.979C57.6382 116.615 59.5395 116.805 61.2651 117.524C62.9907 118.243 64.4621 119.458 65.4916 121.014C65.8994 121.587 66.4426 122.051 67.073 122.365C67.7035 122.679 68.4018 122.834 69.1065 122.815H74.3571C75.0623 122.838 75.7621 122.685 76.3932 122.371C77.0244 122.056 77.5669 121.59 77.9719 121.014C78.9909 119.441 80.4587 118.207 82.1868 117.472C83.9148 116.737 85.824 116.534 87.6688 116.889C89.4734 117.232 91.136 118.099 92.4479 119.381C93.0091 119.93 93.4954 120.544 93.898 121.207C94.286 121.691 94.7757 122.087 95.3339 122.365C95.9644 122.679 96.6628 122.834 97.3674 122.815H102.618C103.323 122.838 104.023 122.685 104.654 122.371C105.285 122.056 105.828 121.59 106.233 121.014C107.252 119.441 108.72 118.207 110.448 117.472C112.176 116.737 114.085 116.534 115.93 116.889C117.734 117.232 119.397 118.099 120.709 119.381C122.021 120.663 122.924 122.303 123.304 124.095C123.604 125.47 123.59 126.894 123.263 128.263C122.936 129.632 122.305 130.91 121.415 132.003C120.538 133.085 119.428 133.958 118.167 134.556C116.907 135.155 115.528 135.464 114.131 135.462C112.605 135.462 111.103 135.091 109.753 134.382C108.403 133.673 107.248 132.646 106.386 131.39C106 130.777 105.468 130.269 104.838 129.909C104.207 129.549 103.498 129.35 102.772 129.328H97.268C96.5423 129.351 95.8334 129.552 95.2032 129.911C94.5731 130.271 94.0409 130.779 93.6531 131.39C92.7986 132.667 91.6417 133.715 90.2846 134.441C88.9276 135.166 87.4122 135.548 85.8722 135.552C84.4748 135.553 83.0948 135.243 81.8331 134.645C80.5713 134.046 79.4596 133.174 78.5792 132.093C78.2657 131.705 77.9843 131.295 77.7371 130.865C77.4089 130.484 77.0168 130.16 76.5766 129.909C75.9462 129.549 75.2367 129.35 74.5107 129.328H69.0071C68.2814 129.351 67.5724 129.552 66.9423 129.911Z" fill="white"/>
<path d="M109.364 155.073C108.733 155.432 108.201 155.94 107.813 156.552C106.959 157.829 105.802 158.877 104.445 159.602C103.088 160.328 101.572 160.71 100.032 160.714C98.6351 160.715 97.2551 160.405 95.9933 159.806C94.7316 159.208 93.6199 158.336 92.7395 157.255C91.854 156.16 91.2249 154.882 90.8981 153.513C90.5714 152.145 90.5552 150.722 90.8507 149.346C91.2333 147.556 92.1368 145.917 93.4484 144.636C94.7599 143.354 96.4214 142.486 98.225 142.141C100.059 141.777 101.961 141.967 103.686 142.686C105.412 143.405 106.883 144.62 107.913 146.176C108.321 146.749 108.864 147.213 109.494 147.527C110.125 147.841 110.823 147.996 111.528 147.977H116.778C117.484 148 118.183 147.847 118.814 147.533C119.446 147.218 119.988 146.752 120.393 146.176C121.412 144.602 122.88 143.369 124.608 142.634C126.336 141.899 128.245 141.695 130.09 142.05C131.895 142.394 133.557 143.261 134.869 144.543C136.181 145.825 137.084 147.465 137.464 149.256C137.764 150.631 137.75 152.056 137.424 153.425C137.097 154.794 136.465 156.072 135.576 157.165C134.698 158.247 133.588 159.119 132.327 159.718C131.067 160.317 129.688 160.626 128.292 160.623C126.766 160.624 125.263 160.253 123.913 159.544C122.564 158.834 121.408 157.807 120.547 156.552C120.16 155.939 119.628 155.43 118.998 155.071C118.367 154.711 117.658 154.511 116.932 154.489H111.428C110.703 154.513 109.994 154.713 109.364 155.073Z" fill="white"/>
<path d="M147.848 100.915C147.85 103.397 148.84 105.776 150.6 107.53C152.361 109.285 154.748 110.272 157.237 110.274C159.727 110.272 162.114 109.285 163.874 107.53C165.634 105.776 166.624 103.397 166.627 100.915C166.624 98.4342 165.634 96.0552 163.874 94.3006C162.114 92.5461 159.727 91.5593 157.237 91.557C154.748 91.5593 152.361 92.5461 150.6 94.3006C148.84 96.0552 147.85 98.4342 147.848 100.915Z" fill="white"/>
<path d="M64.4094 107.53C62.649 105.776 61.659 103.397 61.6566 100.915C61.659 98.4342 62.649 96.0552 64.4094 94.3006C66.1698 92.5461 68.5566 91.5593 71.0462 91.557C73.5357 91.5593 75.9226 92.5461 77.683 94.3006C79.4434 96.0552 80.4334 98.4342 80.4358 100.915C80.4334 103.397 79.4434 105.776 77.683 107.53C75.9226 109.285 73.5357 110.272 71.0462 110.274C68.5566 110.272 66.1698 109.285 64.4094 107.53Z" fill="white"/>
<path d="M132.972 75.754C132.974 78.2354 133.964 80.6144 135.724 82.3689C137.485 84.1235 139.872 85.1102 142.361 85.1126C144.851 85.1102 147.238 84.1235 148.998 82.3689C150.758 80.6144 151.748 78.2354 151.751 75.754C151.748 73.2727 150.758 70.8937 148.998 69.1392C147.238 67.3846 144.851 66.3979 142.361 66.3955C139.872 66.3979 137.485 67.3846 135.724 69.1392C133.964 70.8937 132.974 73.2727 132.972 75.754V75.754Z" fill="white"/>
<path d="M48.2485 75.754C48.2509 78.2354 49.241 80.6144 51.0013 82.3689C52.7617 84.1235 55.1486 85.1102 57.6381 85.1126C60.1276 85.1102 62.5145 84.1235 64.2749 82.3689C66.0353 80.6144 67.0253 78.2354 67.0277 75.754C67.0253 73.2727 66.0353 70.8937 64.2749 69.1392C62.5145 67.3846 60.1276 66.3979 57.6381 66.3955C55.1486 66.3979 52.7617 67.3846 51.0013 69.1392C49.241 70.8937 48.2509 73.2727 48.2485 75.754V75.754Z" fill="white"/>
<path d="M132.972 126.077C132.974 128.559 133.964 130.938 135.724 132.692C137.485 134.447 139.872 135.433 142.361 135.436C144.851 135.433 147.238 134.447 148.998 132.692C150.758 130.938 151.748 128.559 151.751 126.077C151.748 123.596 150.758 121.217 148.998 119.462C147.238 117.708 144.851 116.721 142.361 116.719C139.872 116.721 137.485 117.708 135.724 119.462C133.964 121.217 132.974 123.596 132.972 126.077V126.077Z" fill="white"/>
</svg>
