<svg width="467" height="100" viewBox="0 0 467 100" fill="none" xmlns="http://www.w3.org/2000/svg">
<path d="M0.838806 30.7781V48.7957C0.838806 68.4414 12.8867 79.2954 31.6642 79.2954C50.4416 79.2954 62.381 68.4414 62.381 48.7957V30.7781C62.381 11.1323 50.4416 0.27832 31.6642 0.27832C12.8867 0.27832 0.838806 11.1323 0.838806 30.7781ZM13.4294 30.3439C13.4294 18.8387 20.1589 11.4579 31.6642 11.4579C43.0609 11.4579 49.7903 18.8387 49.7903 30.3439V49.2298C49.7903 60.7351 43.0609 68.1158 31.6642 68.1158C20.1589 68.1158 13.4294 60.7351 13.4294 49.2298V30.3439Z" fill="black"/>
<path d="M73.0857 99.4838H84.9166V70.1781H86.002C89.0411 74.8453 94.4681 79.2954 104.345 79.2954C117.479 79.2954 128.875 68.4414 128.875 50.9665C128.875 33.6001 117.479 22.7461 104.345 22.7461C94.4681 22.7461 89.0411 27.1962 85.7849 32.0805H84.6995V24.2657H73.0857V99.4838ZM100.872 68.9841C91.646 68.9841 84.808 62.2546 84.808 50.9665C84.808 39.6783 91.646 32.9488 100.872 32.9488C110.206 32.9488 116.936 39.6783 116.936 50.9665C116.936 62.3632 110.206 68.9841 100.872 68.9841Z" fill="black"/>
<path d="M135.651 50.7494C135.651 67.5731 146.722 79.2954 163.003 79.2954C177.764 79.2954 184.059 70.8293 187.207 65.1852L177.33 59.8668C175.159 64.534 171.36 68.9841 163.22 68.9841C154.645 68.9841 148.35 63.0144 147.916 54.7654H188.509V49.8811C188.509 33.4916 178.09 22.6376 162.568 22.6376C146.83 22.6376 135.651 34.0343 135.651 50.7494ZM148.024 45.5395C149.001 38.0502 154.211 32.9488 162.46 32.9488C170.383 32.9488 175.702 37.8331 176.353 45.5395H148.024Z" fill="black"/>
<path d="M198.161 24.2657V77.7759H209.992V50.3152C209.992 39.2442 215.745 33.0574 224.645 33.0574C232.568 33.0574 237.235 37.2904 237.235 46.2993V77.7759H249.175V45.648C249.175 31.972 240.492 23.2888 228.227 23.2888C218.024 23.2888 213.248 27.8475 210.86 32.5147H209.775V24.2657H198.161Z" fill="black"/>
<path d="M262.079 1.79788V77.7759H274.67V45.3224H307.775V34.0342H274.67V13.1946H309.945V1.79788H262.079Z" fill="black"/>
<path d="M316.495 48.5786C316.495 68.2243 328.543 79.2954 347.537 79.2954C366.098 79.2954 376.843 68.55 376.843 50.8579V40.1125H344.607V50.8579H364.47V52.269C364.47 61.929 358.826 68.1158 347.537 68.1158C336.141 68.1158 329.086 60.7351 329.086 48.6871V30.8866C329.086 18.8387 336.141 11.4579 347.537 11.4579C358.609 11.4579 363.818 17.9703 363.818 26.9792V28.3902H376.409V27.1962C376.409 11.0238 366.315 0.27832 347.537 0.27832C328.652 0.27832 316.495 11.3494 316.495 31.1037V48.5786Z" fill="black"/>
<path d="M402.267 1.79788L379.908 77.7759H392.824L397.925 60.0838H426.146L431.247 77.7759H444.055L421.696 1.79788H402.267ZM400.965 48.6871L411.493 12.3263H412.578L422.998 48.6871H400.965Z" fill="black"/>
<path d="M438.187 1.5332V3.72833H442.766V16.1674H445.17V3.72833H449.748V1.5332H438.187Z" fill="black"/>
<path d="M451.3 1.5332V16.1674H453.641V4.04192H453.85L457.446 16.1674H460.854L464.429 4.04192H464.638V16.1674H467V1.5332H462.84L459.244 13.7214H459.035L455.46 1.5332H451.3Z" fill="black"/>
</svg>
