<svg width="400" height="401" viewBox="0 0 400 401" fill="none" xmlns="http://www.w3.org/2000/svg">
<circle cx="200" cy="200.945" r="200" fill="black"/>
<path d="M237.405 101.142C237.41 106.06 239.372 110.775 242.862 114.253C246.351 117.731 251.082 119.687 256.017 119.692C260.951 119.687 265.682 117.731 269.172 114.253C272.661 110.775 274.623 106.06 274.628 101.142C274.623 96.2234 272.661 91.5079 269.172 88.0301C265.682 84.5524 260.951 82.5965 256.017 82.5918C251.082 82.5965 246.351 84.5524 242.862 88.0301C239.372 91.5079 237.41 96.2234 237.405 101.142V101.142Z" fill="white"/>
<path d="M125.372 300.636C125.377 305.554 127.339 310.27 130.828 313.747C134.318 317.225 139.049 319.181 143.983 319.186C148.918 319.181 153.649 317.225 157.138 313.747C160.628 310.27 162.59 305.554 162.595 300.636C162.59 295.718 160.628 291.002 157.138 287.524C153.649 284.047 148.918 282.091 143.983 282.086C139.049 282.091 134.318 284.047 130.828 287.524C127.339 291.002 125.377 295.718 125.372 300.636V300.636Z" fill="white"/>
<path d="M236.032 200.889C236.036 205.807 237.999 210.523 241.488 214C244.977 217.478 249.709 219.434 254.643 219.439C259.578 219.434 264.309 217.478 267.798 214C271.287 210.523 273.25 205.807 273.255 200.889C273.25 195.97 271.287 191.255 267.798 187.777C264.309 184.299 259.578 182.344 254.643 182.339C249.709 182.344 244.977 184.299 241.488 187.777C237.999 191.255 236.036 195.97 236.032 200.889V200.889Z" fill="white"/>
<path d="M67.9365 200.889C67.9412 205.807 69.9036 210.523 73.3929 214C76.8821 217.478 81.6133 219.434 86.5479 219.439C91.4825 219.434 96.2136 217.478 99.7029 214C103.192 210.523 105.155 205.807 105.159 200.889C105.155 195.97 103.192 191.255 99.7029 187.777C96.2136 184.299 91.4825 182.344 86.5479 182.339C81.6133 182.344 76.8821 184.299 73.3929 187.777C69.9036 191.255 67.9412 195.97 67.9365 200.889V200.889Z" fill="white"/>
<path d="M159.471 111.558C160.239 110.345 161.294 109.339 162.543 108.626C163.792 107.913 165.197 107.516 166.636 107.47H177.545C178.984 107.513 180.39 107.909 181.64 108.622C182.889 109.335 183.944 110.343 184.71 111.558C186.417 114.046 188.708 116.082 191.383 117.488C194.058 118.894 197.037 119.629 200.061 119.628C202.829 119.633 205.562 119.02 208.061 117.833C210.559 116.647 212.759 114.918 214.499 112.772C216.262 110.606 217.514 108.073 218.162 105.36C218.81 102.646 218.838 99.8223 218.243 97.0968C217.489 93.5458 215.699 90.2959 213.099 87.7549C210.498 85.2139 207.203 83.495 203.626 82.8139C199.969 82.1102 196.185 82.5129 192.76 83.9701C189.335 85.4272 186.425 87.8723 184.405 90.9909C183.603 92.1324 182.527 93.0567 181.276 93.6801C180.025 94.3035 178.638 94.6065 177.24 94.5616H166.833C165.436 94.5985 164.052 94.292 162.802 93.6693C161.553 93.0465 160.476 92.1267 159.668 90.9909C157.627 87.9063 154.71 85.4979 151.29 84.0733C147.87 82.6486 144.101 82.2723 140.465 82.9925C136.89 83.6779 133.597 85.3983 130.997 87.9385C128.398 90.4788 126.607 93.7264 125.848 97.2754C125.263 100.001 125.295 102.823 125.942 105.535C126.59 108.247 127.837 110.78 129.592 112.951C131.337 115.095 133.541 116.823 136.042 118.009C138.543 119.195 141.278 119.809 144.048 119.807C147.1 119.799 150.104 119.043 152.794 117.604C155.484 116.166 157.777 114.089 159.471 111.558Z" fill="white"/>
<path d="M187.48 161.547C188.249 160.334 189.304 159.327 190.553 158.615C191.802 157.902 193.207 157.505 194.645 157.458H205.554C206.993 157.502 208.4 157.898 209.649 158.611C210.899 159.324 211.953 160.332 212.719 161.547C214.427 164.035 216.717 166.07 219.392 167.477C222.067 168.883 225.046 169.617 228.071 169.617C230.838 169.622 233.572 169.008 236.07 167.822C238.568 166.636 240.769 164.906 242.508 162.761C244.271 160.595 245.523 158.062 246.171 155.348C246.819 152.635 246.847 149.811 246.252 147.086C245.498 143.535 243.709 140.285 241.108 137.744C238.508 135.203 235.212 133.484 231.635 132.803C227.979 132.099 224.194 132.502 220.769 133.959C217.344 135.416 214.434 137.861 212.415 140.98C211.612 142.121 210.537 143.045 209.286 143.669C208.035 144.292 206.648 144.595 205.25 144.55H194.842C193.446 144.587 192.061 144.281 190.812 143.658C189.562 143.035 188.485 142.115 187.677 140.98C185.637 137.895 182.72 135.487 179.3 134.062C175.879 132.637 172.11 132.261 168.475 132.981C164.9 133.667 161.606 135.387 159.007 137.927C156.407 140.468 154.616 143.715 153.858 147.264C153.272 149.99 153.304 152.812 153.952 155.524C154.599 158.235 155.846 160.769 157.601 162.939C159.347 165.083 161.55 166.811 164.051 167.997C166.552 169.184 169.287 169.798 172.057 169.795C175.11 169.788 178.113 169.032 180.803 167.593C183.493 166.154 185.786 164.078 187.48 161.547Z" fill="white"/>
<path d="M134.476 258.362C133.226 259.074 132.172 260.081 131.403 261.294C129.709 263.825 127.416 265.902 124.726 267.34C122.036 268.779 119.033 269.535 115.98 269.542C113.21 269.545 110.475 268.931 107.974 267.744C105.473 266.558 103.27 264.83 101.524 262.687C99.7693 260.516 98.5223 257.983 97.8746 255.271C97.227 252.559 97.1949 249.737 97.7807 247.011C98.539 243.462 100.33 240.215 102.93 237.674C105.529 235.134 108.822 233.414 112.398 232.728C116.033 232.008 119.802 232.384 123.222 233.809C126.643 235.234 129.559 237.642 131.6 240.727C132.408 241.862 133.485 242.782 134.735 243.405C135.984 244.028 137.369 244.334 138.765 244.297H149.173C150.57 244.342 151.958 244.039 153.209 243.416C154.459 242.792 155.535 241.868 156.338 240.727C158.357 237.608 161.267 235.163 164.692 233.706C168.117 232.249 171.901 231.846 175.558 232.55C179.135 233.231 182.431 234.95 185.031 237.491C186.143 238.578 187.107 239.794 187.905 241.108C188.674 242.069 189.645 242.854 190.752 243.405C192.001 244.028 193.385 244.334 194.782 244.297H205.189C206.587 244.342 207.974 244.039 209.225 243.416C210.476 242.792 211.552 241.868 212.355 240.727C214.374 237.608 217.284 235.163 220.709 233.706C224.134 232.249 227.918 231.846 231.575 232.55C235.152 233.231 238.448 234.95 241.048 237.491C243.648 240.032 245.438 243.282 246.192 246.833C246.787 249.558 246.759 252.382 246.111 255.095C245.463 257.809 244.211 260.342 242.448 262.508C240.708 264.653 238.508 266.383 236.01 267.569C233.511 268.755 230.778 269.369 228.01 269.364C224.986 269.364 222.007 268.63 219.332 267.224C216.657 265.817 214.366 263.782 212.659 261.294C211.893 260.079 210.838 259.071 209.589 258.358C208.339 257.645 206.933 257.249 205.494 257.206H194.585C193.147 257.252 191.741 257.649 190.492 258.362C189.243 259.074 188.189 260.081 187.42 261.294C185.726 263.825 183.433 265.902 180.743 267.34C178.053 268.779 175.05 269.535 171.997 269.542C169.227 269.545 166.492 268.931 163.991 267.744C161.49 266.558 159.286 264.83 157.541 262.687C156.92 261.918 156.362 261.104 155.872 260.253C155.222 259.497 154.444 258.855 153.572 258.358C152.323 257.645 150.916 257.249 149.477 257.206H138.568C137.13 257.252 135.725 257.649 134.476 258.362Z" fill="white"/>
<path d="M218.56 308.236C217.311 308.948 216.256 309.955 215.488 311.168C213.794 313.699 211.501 315.776 208.811 317.214C206.121 318.653 203.117 319.409 200.065 319.416C197.295 319.419 194.56 318.805 192.059 317.618C189.558 316.432 187.354 314.704 185.609 312.561C183.854 310.39 182.607 307.857 181.959 305.145C181.311 302.433 181.279 299.611 181.865 296.885C182.624 293.336 184.414 290.089 187.014 287.548C189.614 285.008 192.907 283.288 196.482 282.602C200.118 281.882 203.887 282.258 207.307 283.683C210.727 285.108 213.644 287.516 215.685 290.601C216.493 291.736 217.569 292.656 218.819 293.279C220.069 293.902 221.453 294.208 222.85 294.171H233.257C234.655 294.216 236.042 293.913 237.293 293.29C238.544 292.666 239.619 291.742 240.422 290.601C242.442 287.482 245.351 285.037 248.777 283.58C252.202 282.123 255.986 281.72 259.643 282.424C263.22 283.105 266.515 284.824 269.116 287.365C271.716 289.906 273.505 293.156 274.259 296.707C274.854 299.432 274.827 302.256 274.179 304.969C273.531 307.683 272.279 310.216 270.516 312.382C268.776 314.527 266.576 316.257 264.077 317.443C261.579 318.629 258.846 319.243 256.078 319.238C253.054 319.238 250.075 318.504 247.4 317.098C244.725 315.691 242.434 313.656 240.727 311.168C239.96 309.953 238.906 308.945 237.657 308.232C236.407 307.519 235.001 307.123 233.562 307.079H222.653C221.214 307.126 219.809 307.523 218.56 308.236Z" fill="white"/>
<path d="M294.84 200.889C294.845 205.807 296.808 210.522 300.297 214C303.786 217.478 308.517 219.434 313.452 219.439C318.386 219.434 323.118 217.478 326.607 214C330.096 210.522 332.059 205.807 332.063 200.889C332.059 195.97 330.096 191.255 326.607 187.777C323.118 184.299 318.386 182.344 313.452 182.339C308.517 182.344 303.786 184.299 300.297 187.777C296.808 191.255 294.845 195.97 294.84 200.889Z" fill="white"/>
<path d="M129.455 214C125.966 210.522 124.003 205.807 123.999 200.889C124.003 195.97 125.966 191.255 129.455 187.777C132.944 184.299 137.675 182.344 142.61 182.339C147.545 182.344 152.276 184.299 155.765 187.777C159.254 191.255 161.217 195.97 161.221 200.889C161.217 205.807 159.254 210.522 155.765 214C152.276 217.478 147.545 219.434 142.61 219.439C137.675 219.434 132.944 217.478 129.455 214Z" fill="white"/>
<path d="M265.355 151.015C265.359 155.933 267.322 160.648 270.811 164.126C274.3 167.604 279.031 169.56 283.966 169.565C288.901 169.56 293.632 167.604 297.121 164.126C300.61 160.648 302.573 155.933 302.577 151.015C302.573 146.096 300.61 141.381 297.121 137.903C293.632 134.425 288.901 132.47 283.966 132.465C279.031 132.47 274.3 134.425 270.811 137.903C267.322 141.381 265.359 146.096 265.355 151.015V151.015Z" fill="white"/>
<path d="M97.4219 151.015C97.4266 155.933 99.389 160.648 102.878 164.126C106.368 167.604 111.099 169.56 116.033 169.565C120.968 169.56 125.699 167.604 129.188 164.126C132.678 160.648 134.64 155.933 134.645 151.015C134.64 146.096 132.678 141.381 129.188 137.903C125.699 134.425 120.968 132.47 116.033 132.465C111.099 132.47 106.368 134.425 102.878 137.903C99.389 141.381 97.4266 146.096 97.4219 151.015V151.015Z" fill="white"/>
<path d="M265.355 250.762C265.359 255.68 267.322 260.396 270.811 263.873C274.3 267.351 279.031 269.307 283.966 269.312C288.901 269.307 293.632 267.351 297.121 263.873C300.61 260.396 302.573 255.68 302.577 250.762C302.573 245.844 300.61 241.128 297.121 237.65C293.632 234.173 288.901 232.217 283.966 232.212C279.031 232.217 274.3 234.173 270.811 237.65C267.322 241.128 265.359 245.844 265.355 250.762V250.762Z" fill="white"/>
</svg>
