<svg width="702" height="162" viewBox="0 0 702 162" fill="none" xmlns="http://www.w3.org/2000/svg">
<path d="M213.136 69.9911V87.8497C213.136 107.322 225.077 118.08 243.689 118.08C262.301 118.08 274.135 107.322 274.135 87.8497V69.9911C274.135 50.5187 262.301 39.7605 243.689 39.7605C225.077 39.7605 213.136 50.5187 213.136 69.9911ZM225.615 69.5608C225.615 58.157 232.285 50.8414 243.689 50.8414C254.985 50.8414 261.655 58.157 261.655 69.5608V88.2801C261.655 99.6838 254.985 106.999 243.689 106.999C232.285 106.999 225.615 99.6838 225.615 88.2801V69.5608ZM284.745 138.091H296.472V109.043H297.548C300.56 113.669 305.939 118.08 315.729 118.08C328.746 118.08 340.043 107.322 340.043 90.0014C340.043 72.7882 328.746 62.03 315.729 62.03C305.939 62.03 300.56 66.4409 297.332 71.2821H296.257V63.5362H284.745V138.091ZM312.286 107.86C303.142 107.86 296.364 101.19 296.364 90.0014C296.364 78.8128 303.142 72.1427 312.286 72.1427C321.538 72.1427 328.209 78.8128 328.209 90.0014C328.209 101.298 321.538 107.86 312.286 107.86ZM346.758 89.7862C346.758 106.461 357.731 118.08 373.869 118.08C388.5 118.08 394.74 109.689 397.86 104.095L388.07 98.8231C385.918 103.449 382.153 107.86 374.084 107.86C365.585 107.86 359.345 101.943 358.915 93.7668H399.151V88.9256C399.151 72.6806 388.823 61.9224 373.438 61.9224C357.839 61.9224 346.758 73.2186 346.758 89.7862ZM359.022 84.6223C359.991 77.1991 365.155 72.1427 373.331 72.1427C381.184 72.1427 386.456 76.9839 387.101 84.6223H359.022ZM408.717 63.5362V116.574H420.443V89.3559C420.443 78.3825 426.145 72.2503 434.967 72.2503C442.821 72.2503 447.447 76.446 447.447 85.3754V116.574H459.281V84.7299C459.281 71.1745 450.674 62.5679 438.517 62.5679C428.405 62.5679 423.671 67.0864 421.304 71.7124H420.228V63.5362H408.717ZM472.071 41.2666V116.574H484.551V84.4071H517.363V73.2186H484.551V52.5628H519.515V41.2666H472.071ZM526.007 87.6346C526.007 107.107 537.949 118.08 556.775 118.08C575.172 118.08 585.823 107.43 585.823 89.8938V79.2432H553.871V89.8938H573.558V91.2924C573.558 100.867 567.964 106.999 556.775 106.999C545.479 106.999 538.486 99.6838 538.486 87.7422V70.0987C538.486 58.157 545.479 50.8414 556.775 50.8414C567.749 50.8414 572.913 57.2964 572.913 66.2257V67.6243H585.392V66.4409C585.392 50.4111 575.387 39.7605 556.775 39.7605C538.056 39.7605 526.007 50.7339 526.007 70.3138V87.6346ZM611.022 41.2666L588.86 116.574H601.662L606.719 99.0383H634.69L639.747 116.574H652.441L630.279 41.2666H611.022ZM609.731 87.7422L620.167 51.7021H621.242L631.57 87.7422H609.731Z" fill="white"/>
<path d="M128.769 0.291992H32.5752C14.6915 0.291992 0.193848 14.7896 0.193848 32.6734V128.867C0.193848 146.751 14.6915 161.248 32.5752 161.248H128.769C146.653 161.248 161.15 146.751 161.15 128.867V32.6734C161.15 14.7896 146.653 0.291992 128.769 0.291992Z" fill="black"/>
<path d="M95.8593 40.2474C95.8612 42.2443 96.6579 44.1589 98.0746 45.5709C99.4914 46.983 101.412 47.7771 103.416 47.779C105.419 47.7771 107.34 46.983 108.757 45.5709C110.174 44.1589 110.97 42.2443 110.972 40.2474C110.97 38.2505 110.174 36.3359 108.757 34.9239C107.34 33.5119 105.419 32.7177 103.416 32.7158C101.412 32.7177 99.4914 33.5119 98.0746 34.9239C96.6579 36.3359 95.8612 38.2505 95.8593 40.2474V40.2474Z" fill="white"/>
<path d="M50.3717 121.245C50.3736 123.242 51.1704 125.157 52.5871 126.569C54.0038 127.981 55.9247 128.775 57.9283 128.777C59.9318 128.775 61.8527 127.981 63.2695 126.569C64.6862 125.157 65.4829 123.242 65.4848 121.245C65.4829 119.249 64.6862 117.334 63.2695 115.922C61.8527 114.51 59.9318 113.716 57.9283 113.714C55.9247 113.716 54.0038 114.51 52.5871 115.922C51.1704 117.334 50.3736 119.249 50.3717 121.245V121.245Z" fill="white"/>
<path d="M95.3015 80.7464C95.3034 82.7433 96.1001 84.6579 97.5168 86.07C98.9336 87.482 100.854 88.2761 102.858 88.278C104.862 88.2761 106.782 87.482 108.199 86.07C109.616 84.6579 110.413 82.7433 110.415 80.7464C110.413 78.7495 109.616 76.8349 108.199 75.4229C106.782 74.0109 104.862 73.2168 102.858 73.2148C100.854 73.2168 98.9336 74.0109 97.5168 75.4229C96.1001 76.8349 95.3034 78.7495 95.3015 80.7464V80.7464Z" fill="white"/>
<path d="M27.0516 80.7464C27.0536 82.7433 27.8503 84.6579 29.267 86.07C30.6837 87.482 32.6047 88.2761 34.6082 88.278C36.6117 88.2761 38.5327 87.482 39.9494 86.07C41.3661 84.6579 42.1629 82.7433 42.1648 80.7464C42.1629 78.7495 41.3661 76.8349 39.9494 75.4229C38.5327 74.0109 36.6117 73.2168 34.6082 73.2148C32.6047 73.2168 30.6837 74.0109 29.267 75.4229C27.8503 76.8349 27.0536 78.7495 27.0516 80.7464V80.7464Z" fill="white"/>
<path d="M64.2163 44.4766C64.5283 43.9842 64.9566 43.5755 65.4637 43.2861C65.9709 42.9967 66.5414 42.8355 67.1254 42.8166H71.5546C72.139 42.8343 72.71 42.9949 73.2173 43.2844C73.7246 43.5739 74.1527 43.9833 74.4638 44.4766C75.157 45.4868 76.0871 46.3132 77.1732 46.8842C78.2593 47.4551 79.4688 47.7534 80.6967 47.7531C81.8204 47.7551 82.9302 47.5061 83.9447 47.0244C84.9591 46.5427 85.8523 45.8406 86.5587 44.9696C87.2746 44.0901 87.7828 43.0615 88.046 41.9598C88.3091 40.8582 88.3203 39.7116 88.0787 38.605C87.7726 37.1633 87.046 35.8437 85.9902 34.812C84.9344 33.7803 83.5964 33.0824 82.144 32.8059C80.6594 32.5202 79.1229 32.6837 77.7322 33.2753C76.3415 33.867 75.1602 34.8597 74.3402 36.1259C74.0143 36.5894 73.5776 36.9647 73.0697 37.2178C72.5618 37.4709 71.9986 37.5939 71.431 37.5757H67.2054C66.6384 37.5907 66.0763 37.4662 65.5689 37.2134C65.0616 36.9605 64.6245 36.5871 64.2962 36.1259C63.4677 34.8735 62.2835 33.8957 60.8948 33.3172C59.5061 32.7388 57.9759 32.586 56.4997 32.8784C55.0481 33.1567 53.7111 33.8552 52.6555 34.8866C51.6 35.918 50.8729 37.2366 50.565 38.6775C50.3271 39.7843 50.3401 40.93 50.6031 42.031C50.8661 43.1321 51.3724 44.1608 52.085 45.042C52.7935 45.9124 53.6882 46.614 54.7037 47.0956C55.7191 47.5772 56.8297 47.8266 57.9543 47.8256C59.1937 47.8226 60.4132 47.5155 61.5054 46.9314C62.5975 46.3474 63.5285 45.5043 64.2163 44.4766Z" fill="url(#paint0_linear_435_15837)"/>
<path d="M75.5886 64.7729C75.9006 64.2805 76.3289 63.8718 76.836 63.5824C77.3432 63.293 77.9137 63.1319 78.4977 63.113H82.927C83.5113 63.1306 84.0823 63.2913 84.5896 63.5807C85.0969 63.8702 85.525 64.2797 85.8361 64.7729C86.5294 65.7831 87.4594 66.6095 88.5455 67.1805C89.6316 67.7514 90.8411 68.0497 92.069 68.0494C93.1927 68.0514 94.3025 67.8024 95.317 67.3207C96.3314 66.839 97.2246 66.1369 97.931 65.2659C98.6469 64.3864 99.1552 63.3578 99.4183 62.2562C99.6814 61.1545 99.6926 60.0079 99.4511 58.9014C99.1449 57.4596 98.4183 56.1401 97.3625 55.1084C96.3067 54.0767 94.9687 53.3788 93.5163 53.1022C92.0317 52.8165 90.4952 52.98 89.1045 53.5716C87.7138 54.1633 86.5325 55.156 85.7125 56.4222C85.3866 56.8857 84.9499 57.261 84.442 57.5141C83.9341 57.7672 83.3709 57.8902 82.8033 57.872H78.5777C78.0107 57.887 77.4486 57.7626 76.9413 57.5097C76.4339 57.2569 75.9968 56.8834 75.6686 56.4222C74.84 55.1698 73.6558 54.192 72.2671 53.6135C70.8784 53.0351 69.3482 52.8823 67.872 53.1747C66.4204 53.453 65.0834 54.1515 64.0278 55.1829C62.9723 56.2143 62.2452 57.5329 61.9373 58.9738C61.6994 60.0806 61.7125 61.2263 61.9754 62.3274C62.2384 63.4284 62.7447 64.4571 63.4573 65.3384C64.1659 66.2087 65.0605 66.9104 66.076 67.392C67.0914 67.8735 68.202 68.1229 69.3266 68.1219C70.566 68.1189 71.7856 67.8118 72.8777 67.2278C73.9698 66.6437 74.9008 65.8006 75.5886 64.7729Z" fill="url(#paint1_linear_435_15837)"/>
<path d="M54.0677 104.082C53.5606 104.371 53.1323 104.78 52.8203 105.272C52.1325 106.3 51.2015 107.143 50.1094 107.727C49.0173 108.311 47.7977 108.618 46.5583 108.621C45.4337 108.622 44.3231 108.373 43.3077 107.891C42.2922 107.41 41.3976 106.708 40.689 105.837C39.9764 104.956 39.4701 103.928 39.2071 102.826C38.9442 101.725 38.9311 100.58 39.169 99.473C39.4769 98.032 40.204 96.7135 41.2595 95.6821C42.3151 94.6507 43.6521 93.9522 45.1037 93.6739C46.5799 93.3815 48.1101 93.5342 49.4988 94.1127C50.8875 94.6911 52.0717 95.669 52.9003 96.9214C53.2285 97.3825 53.6656 97.756 54.173 98.0088C54.6803 98.2617 55.2424 98.3861 55.8094 98.3711H60.035C60.6026 98.3894 61.1658 98.2663 61.6737 98.0132C62.1816 97.7601 62.6183 97.3849 62.9442 96.9214C63.7642 95.6552 64.9455 94.6624 66.3362 94.0708C67.7269 93.4791 69.2634 93.3157 70.748 93.6014C72.2004 93.8779 73.5384 94.5758 74.5942 95.6075C75.0458 96.0488 75.4372 96.5427 75.7612 97.0764C76.0735 97.4665 76.4676 97.785 76.9168 98.0088C77.4242 98.2617 77.9863 98.3861 78.5533 98.3711H82.7789C83.3465 98.3894 83.9097 98.2663 84.4176 98.0132C84.9255 97.7601 85.3622 97.3849 85.6881 96.9214C86.5081 95.6552 87.6894 94.6624 89.0801 94.0708C90.4708 93.4791 92.0073 93.3157 93.4919 93.6014C94.9443 93.8779 96.2823 94.5758 97.3381 95.6075C98.3939 96.6392 99.1205 97.9587 99.4266 99.4005C99.6682 100.507 99.657 101.654 99.3939 102.755C99.1307 103.857 98.6225 104.886 97.9066 105.765C97.2002 106.636 96.307 107.338 95.2926 107.82C94.2781 108.302 93.1683 108.551 92.0446 108.549C90.8167 108.549 89.6072 108.251 88.5211 107.68C87.435 107.109 86.5049 106.282 85.8117 105.272C85.5006 104.779 85.0725 104.369 84.5652 104.08C84.0579 103.79 83.4869 103.63 82.9025 103.612H78.4733C77.8893 103.631 77.3188 103.792 76.8116 104.082C76.3045 104.371 75.8762 104.78 75.5642 105.272C74.8764 106.3 73.9454 107.143 72.8532 107.727C71.7611 108.311 70.5416 108.618 69.3022 108.621C68.1776 108.622 67.067 108.373 66.0516 107.891C65.0361 107.41 64.1414 106.708 63.4329 105.837C63.1806 105.525 62.9542 105.195 62.7552 104.849C62.4911 104.543 62.1755 104.282 61.8213 104.08C61.314 103.79 60.743 103.63 60.1586 103.612H55.7294C55.1454 103.631 54.5749 103.792 54.0677 104.082Z" fill="url(#paint2_linear_435_15837)"/>
<path d="M88.2076 124.331C87.7005 124.621 87.2722 125.029 86.9601 125.522C86.2723 126.549 85.3413 127.393 84.2492 127.977C83.1571 128.561 81.9375 128.868 80.6981 128.871C79.5736 128.872 78.463 128.622 77.4475 128.141C76.4321 127.659 75.5374 126.958 74.8289 126.087C74.1162 125.206 73.6099 124.177 73.347 123.076C73.084 121.975 73.071 120.829 73.3088 119.723C73.6167 118.282 74.3439 116.963 75.3994 115.932C76.4549 114.9 77.792 114.202 79.2435 113.924C80.7198 113.631 82.2499 113.784 83.6386 114.362C85.0274 114.941 86.2116 115.919 87.0401 117.171C87.3683 117.632 87.8054 118.006 88.3128 118.259C88.8202 118.511 89.3822 118.636 89.9493 118.621H94.1749C94.7424 118.639 95.3056 118.516 95.8135 118.263C96.3214 118.01 96.7581 117.635 97.084 117.171C97.9041 115.905 99.0854 114.912 100.476 114.321C101.867 113.729 103.403 113.565 104.888 113.851C106.34 114.128 107.678 114.826 108.734 115.857C109.79 116.889 110.516 118.208 110.823 119.65C111.064 120.757 111.053 121.903 110.79 123.005C110.527 124.107 110.018 125.135 109.303 126.015C108.596 126.886 107.703 127.588 106.689 128.07C105.674 128.551 104.564 128.8 103.441 128.798C102.213 128.799 101.003 128.5 99.917 127.929C98.8309 127.358 97.9009 126.532 97.2077 125.522C96.8965 125.029 96.4685 124.619 95.9611 124.33C95.4538 124.04 94.8828 123.879 94.2985 123.862H89.8693C89.2852 123.881 88.7147 124.042 88.2076 124.331Z" fill="url(#paint3_linear_435_15837)"/>
<path d="M119.179 80.7464C119.181 82.7433 119.978 84.6579 121.394 86.0699C122.811 87.482 124.732 88.2761 126.735 88.278C128.739 88.2761 130.66 87.482 132.077 86.0699C133.493 84.6579 134.29 82.7433 134.292 80.7464C134.29 78.7495 133.493 76.8349 132.077 75.4229C130.66 74.0109 128.739 73.2167 126.735 73.2148C124.732 73.2167 122.811 74.0109 121.394 75.4229C119.978 76.8349 119.181 78.7495 119.179 80.7464Z" fill="url(#paint4_linear_435_15837)"/>
<path d="M52.0293 86.0699C50.6126 84.6579 49.8158 82.7433 49.8139 80.7464C49.8158 78.7495 50.6126 76.8349 52.0293 75.4229C53.446 74.0109 55.3669 73.2167 57.3705 73.2148C59.374 73.2167 61.295 74.0109 62.7117 75.4229C64.1284 76.8349 64.9251 78.7495 64.9271 80.7464C64.9251 82.7433 64.1284 84.6579 62.7117 86.0699C61.295 87.482 59.374 88.2761 57.3705 88.278C55.3669 88.2761 53.446 87.482 52.0293 86.0699Z" fill="url(#paint5_linear_435_15837)"/>
<path d="M107.207 60.4964C107.209 62.4933 108.006 64.4079 109.423 65.82C110.839 67.232 112.76 68.0261 114.764 68.028C116.767 68.0261 118.688 67.232 120.105 65.82C121.522 64.4079 122.318 62.4933 122.32 60.4964C122.318 58.4995 121.522 56.5849 120.105 55.1729C118.688 53.7609 116.767 52.9668 114.764 52.9648C112.76 52.9668 110.839 53.7609 109.423 55.1729C108.006 56.5849 107.209 58.4995 107.207 60.4964V60.4964Z" fill="white"/>
<path d="M39.0234 60.4964C39.0254 62.4933 39.8221 64.4079 41.2388 65.82C42.6555 67.232 44.5765 68.0261 46.58 68.028C48.5835 68.0261 50.5045 67.232 51.9212 65.82C53.3379 64.4079 54.1347 62.4933 54.1366 60.4964C54.1347 58.4995 53.3379 56.5849 51.9212 55.1729C50.5045 53.7609 48.5835 52.9668 46.58 52.9648C44.5765 52.9668 42.6555 53.7609 41.2388 55.1729C39.8221 56.5849 39.0254 58.4995 39.0234 60.4964V60.4964Z" fill="white"/>
<path d="M107.207 100.996C107.209 102.993 108.006 104.908 109.423 106.32C110.839 107.732 112.76 108.526 114.764 108.528C116.767 108.526 118.688 107.732 120.105 106.32C121.522 104.908 122.318 102.993 122.32 100.996C122.318 98.9995 121.522 97.0849 120.105 95.6729C118.688 94.2609 116.767 93.4668 114.764 93.4648C112.76 93.4668 110.839 94.2609 109.423 95.6729C108.006 97.0849 107.209 98.9995 107.207 100.996V100.996Z" fill="white"/>
<path d="M646.625 41.2566V43.4324H651.163V55.7617H653.546V43.4324H658.084V41.2566H646.625ZM659.622 41.2566V55.7617H661.943V43.7432H662.15L665.714 55.7617H669.092L672.635 43.7432H672.842V55.7617H675.184V41.2566H671.06L667.496 53.3373H667.289L663.745 41.2566H659.622Z" fill="white"/>
<defs>
<linearGradient id="paint0_linear_435_15837" x1="38.9998" y1="28.4106" x2="116.988" y2="134.264" gradientUnits="userSpaceOnUse">
<stop stop-color="#00FAFF"/>
<stop offset="1" stop-color="#8BFF95"/>
</linearGradient>
<linearGradient id="paint1_linear_435_15837" x1="38.9998" y1="28.4106" x2="116.988" y2="134.264" gradientUnits="userSpaceOnUse">
<stop stop-color="#00FAFF"/>
<stop offset="1" stop-color="#8BFF95"/>
</linearGradient>
<linearGradient id="paint2_linear_435_15837" x1="38.9998" y1="28.4106" x2="116.988" y2="134.264" gradientUnits="userSpaceOnUse">
<stop stop-color="#00FAFF"/>
<stop offset="1" stop-color="#8BFF95"/>
</linearGradient>
<linearGradient id="paint3_linear_435_15837" x1="38.9998" y1="28.4106" x2="116.988" y2="134.264" gradientUnits="userSpaceOnUse">
<stop stop-color="#00FAFF"/>
<stop offset="1" stop-color="#8BFF95"/>
</linearGradient>
<linearGradient id="paint4_linear_435_15837" x1="38.9998" y1="28.4106" x2="116.988" y2="134.264" gradientUnits="userSpaceOnUse">
<stop stop-color="#00FAFF"/>
<stop offset="1" stop-color="#8BFF95"/>
</linearGradient>
<linearGradient id="paint5_linear_435_15837" x1="38.9998" y1="28.4106" x2="116.988" y2="134.264" gradientUnits="userSpaceOnUse">
<stop stop-color="#00FAFF"/>
<stop offset="1" stop-color="#8BFF95"/>
</linearGradient>
</defs>
</svg>
