<svg width="795" height="170" viewBox="0 0 795 170" fill="none" xmlns="http://www.w3.org/2000/svg">
<path d="M0.186523 52.6393V83.3493C0.186523 116.834 20.7215 135.334 52.7265 135.334C84.7315 135.334 105.082 116.834 105.082 83.3493V52.6393C105.082 19.1543 84.7315 0.654297 52.7265 0.654297C20.7215 0.654297 0.186523 19.1543 0.186523 52.6393ZM21.6465 51.8993C21.6465 32.2893 33.1165 19.7093 52.7265 19.7093C72.1515 19.7093 83.6215 32.2893 83.6215 51.8993V84.0893C83.6215 103.699 72.1515 116.279 52.7265 116.279C33.1165 116.279 21.6465 103.699 21.6465 84.0893V51.8993Z" fill="white"/>
<path d="M123.327 169.744H143.492V119.794H145.342C150.522 127.749 159.772 135.334 176.607 135.334C198.992 135.334 218.417 116.834 218.417 87.0493C218.417 57.4493 198.992 38.9493 176.607 38.9493C159.772 38.9493 150.522 46.5343 144.972 54.8593H143.122V41.5393H123.327V169.744ZM170.687 117.759C154.962 117.759 143.307 106.289 143.307 87.0493C143.307 67.8093 154.962 56.3393 170.687 56.3393C186.597 56.3393 198.067 67.8093 198.067 87.0493C198.067 106.474 186.597 117.759 170.687 117.759Z" fill="white"/>
<path d="M229.965 86.6793C229.965 115.354 248.835 135.334 276.585 135.334C301.745 135.334 312.475 120.904 317.84 111.284L301.005 102.219C297.305 110.174 290.83 117.759 276.955 117.759C262.34 117.759 251.61 107.584 250.87 93.5243H320.06V85.1993C320.06 57.2643 302.3 38.7643 275.845 38.7643C249.02 38.7643 229.965 58.1893 229.965 86.6793ZM251.055 77.7993C252.72 65.0343 261.6 56.3393 275.66 56.3393C289.165 56.3393 298.23 64.6643 299.34 77.7993H251.055Z" fill="white"/>
<path d="M336.511 41.5393V132.744H356.676V85.9393C356.676 67.0693 366.481 56.5243 381.651 56.5243C395.156 56.5243 403.111 63.7393 403.111 79.0943V132.744H423.461V77.9843C423.461 54.6743 408.661 39.8743 387.756 39.8743C370.366 39.8743 362.226 47.6443 358.156 55.5993H356.306V41.5393H336.511Z" fill="white"/>
<path d="M445.456 3.2443V132.744H466.915V77.4293H523.341V58.1893H466.915V22.6693H527.041V3.2443H445.456Z" fill="white"/>
<path d="M538.204 82.9793C538.204 116.464 558.739 135.334 591.114 135.334C622.749 135.334 641.064 117.019 641.064 86.8643V68.5493H586.119V86.8643H619.974V89.2693C619.974 105.734 610.354 116.279 591.114 116.279C571.689 116.279 559.664 103.699 559.664 83.1643V52.8243C559.664 32.2893 571.689 19.7093 591.114 19.7093C609.984 19.7093 618.864 30.8093 618.864 46.1643V48.5693H640.324V46.5343C640.324 18.9693 623.119 0.654297 591.114 0.654297C558.924 0.654297 538.204 19.5243 538.204 53.1943V82.9793Z" fill="white"/>
<path d="M684.398 3.2443L646.287 132.744H668.302L676.997 102.589H725.097L733.792 132.744H755.622L717.513 3.2443H684.398ZM682.177 83.1643L700.122 21.1893H701.972L719.732 83.1643H682.177Z" fill="white"/>
<path d="M745.622 2.79395V6.53541H753.425V27.7371H757.523V6.53541H765.327V2.79395H745.622Z" fill="white"/>
<path d="M767.971 2.79395V27.7371H771.961V7.06991H772.318L778.447 27.7371H784.255L790.348 7.06991H790.704V27.7371H794.731V2.79395H787.64L781.511 23.568H781.155L775.062 2.79395H767.971Z" fill="white"/>
</svg>
