<svg width="702" height="162" viewBox="0 0 702 162" fill="none" xmlns="http://www.w3.org/2000/svg">
<path d="M213.136 70.2362V88.0949C213.136 107.567 225.077 118.325 243.689 118.325C262.301 118.325 274.135 107.567 274.135 88.0949V70.2362C274.135 50.7638 262.301 40.0056 243.689 40.0056C225.077 40.0056 213.136 50.7638 213.136 70.2362ZM225.615 69.8059C225.615 58.4022 232.285 51.0866 243.689 51.0866C254.985 51.0866 261.655 58.4022 261.655 69.8059V88.5252C261.655 99.9289 254.985 107.245 243.689 107.245C232.285 107.245 225.615 99.9289 225.615 88.5252V69.8059ZM284.745 138.336H296.472V109.289H297.548C300.56 113.915 305.939 118.325 315.729 118.325C328.746 118.325 340.043 107.567 340.043 90.2465C340.043 73.0333 328.746 62.2751 315.729 62.2751C305.939 62.2751 300.56 66.686 297.332 71.5272H296.257V63.7813H284.745V138.336ZM312.286 108.105C303.142 108.105 296.364 101.435 296.364 90.2465C296.364 79.058 303.142 72.3879 312.286 72.3879C321.538 72.3879 328.209 79.058 328.209 90.2465C328.209 101.543 321.538 108.105 312.286 108.105ZM346.758 90.0313C346.758 106.707 357.731 118.325 373.869 118.325C388.5 118.325 394.74 109.934 397.86 104.34L388.07 99.0683C385.918 103.694 382.153 108.105 374.084 108.105C365.585 108.105 359.345 102.188 358.915 94.0119H399.151V89.1707C399.151 72.9258 388.823 62.1675 373.438 62.1675C357.839 62.1675 346.758 73.4637 346.758 90.0313ZM359.022 84.8674C359.991 77.4442 365.155 72.3879 373.331 72.3879C381.184 72.3879 386.456 77.2291 387.101 84.8674H359.022ZM408.717 63.7813V116.819H420.443V89.601C420.443 78.6276 426.145 72.4954 434.967 72.4954C442.821 72.4954 447.447 76.6911 447.447 85.6205V116.819H459.281V84.975C459.281 71.4196 450.674 62.813 438.517 62.813C428.405 62.813 423.671 67.3315 421.304 71.9575H420.228V63.7813H408.717ZM472.071 41.5117V116.819H484.551V84.6522H517.363V73.4637H484.551V52.8079H519.515V41.5117H472.071ZM526.007 87.8797C526.007 107.352 537.949 118.325 556.775 118.325C575.172 118.325 585.823 107.675 585.823 90.1389V79.4883H553.871V90.1389H573.558V91.5375C573.558 101.112 567.964 107.245 556.775 107.245C545.479 107.245 538.486 99.9289 538.486 87.9873V70.3438C538.486 58.4022 545.479 51.0866 556.775 51.0866C567.749 51.0866 572.913 57.5415 572.913 66.4708V67.8694H585.392V66.686C585.392 50.6562 575.387 40.0056 556.775 40.0056C538.056 40.0056 526.007 50.979 526.007 70.559V87.8797ZM611.022 41.5117L588.86 116.819H601.662L606.719 99.2834H634.69L639.747 116.819H652.441L630.279 41.5117H611.022ZM609.731 87.9873L620.167 51.9472H621.242L631.57 87.9873H609.731Z" fill="white"/>
<path d="M646.625 41.4295V43.6053H651.163V55.9346H653.546V43.6053H658.084V41.4295H646.625ZM659.622 41.4295V55.9346H661.943V43.9161H662.15L665.714 55.9346H669.092L672.635 43.9161H672.842V55.9346H675.184V41.4295H671.06L667.496 53.5102H667.289L663.745 41.4295H659.622Z" fill="white"/>
<path d="M128.769 0.466797H32.5752C14.6915 0.466797 0.193848 14.9644 0.193848 32.8482V129.042C0.193848 146.926 14.6915 161.423 32.5752 161.423H128.769C146.653 161.423 161.15 146.926 161.15 129.042V32.8482C161.15 14.9644 146.653 0.466797 128.769 0.466797Z" fill="black"/>
<path d="M95.8593 40.4222C95.8612 42.4191 96.6579 44.3337 98.0746 45.7457C99.4914 47.1578 101.412 47.9519 103.416 47.9538C105.419 47.9519 107.34 47.1578 108.757 45.7457C110.174 44.3337 110.97 42.4191 110.972 40.4222C110.97 38.4253 110.174 36.5107 108.757 35.0987C107.34 33.6867 105.419 32.8925 103.416 32.8906C101.412 32.8925 99.4914 33.6867 98.0746 35.0987C96.6579 36.5107 95.8612 38.4253 95.8593 40.4222V40.4222Z" fill="white"/>
<path d="M50.3717 121.42C50.3736 123.417 51.1704 125.332 52.5871 126.744C54.0038 128.156 55.9247 128.95 57.9283 128.952C59.9318 128.95 61.8527 128.156 63.2695 126.744C64.6862 125.332 65.4829 123.417 65.4848 121.42C65.4829 119.423 64.6862 117.509 63.2695 116.097C61.8527 114.685 59.9318 113.891 57.9283 113.889C55.9247 113.891 54.0038 114.685 52.5871 116.097C51.1704 117.509 50.3736 119.423 50.3717 121.42V121.42Z" fill="white"/>
<path d="M95.3015 80.9212C95.3034 82.9181 96.1001 84.8327 97.5168 86.2448C98.9336 87.6568 100.854 88.4509 102.858 88.4528C104.862 88.4509 106.782 87.6568 108.199 86.2448C109.616 84.8327 110.413 82.9181 110.415 80.9212C110.413 78.9243 109.616 77.0097 108.199 75.5977C106.782 74.1857 104.862 73.3916 102.858 73.3896C100.854 73.3916 98.9336 74.1857 97.5168 75.5977C96.1001 77.0097 95.3034 78.9243 95.3015 80.9212V80.9212Z" fill="white"/>
<path d="M27.0516 80.9212C27.0536 82.9181 27.8503 84.8327 29.267 86.2448C30.6837 87.6568 32.6047 88.4509 34.6082 88.4528C36.6117 88.4509 38.5327 87.6568 39.9494 86.2448C41.3661 84.8327 42.1629 82.9181 42.1648 80.9212C42.1629 78.9243 41.3661 77.0097 39.9494 75.5977C38.5327 74.1857 36.6117 73.3916 34.6082 73.3896C32.6047 73.3916 30.6837 74.1857 29.267 75.5977C27.8503 77.0097 27.0536 78.9243 27.0516 80.9212V80.9212Z" fill="white"/>
<path d="M64.2163 44.6514C64.5283 44.159 64.9566 43.7503 65.4637 43.4609C65.9709 43.1715 66.5414 43.0103 67.1254 42.9914H71.5546C72.139 43.0091 72.71 43.1697 73.2173 43.4592C73.7246 43.7487 74.1527 44.1581 74.4638 44.6514C75.157 45.6616 76.0871 46.488 77.1732 47.059C78.2593 47.6299 79.4688 47.9282 80.6967 47.9279C81.8204 47.9299 82.9302 47.6809 83.9447 47.1992C84.9591 46.7175 85.8523 46.0154 86.5587 45.1444C87.2746 44.2649 87.7828 43.2363 88.046 42.1346C88.3091 41.033 88.3203 39.8864 88.0787 38.7798C87.7726 37.3381 87.046 36.0185 85.9902 34.9868C84.9344 33.9551 83.5964 33.2572 82.144 32.9807C80.6594 32.695 79.1229 32.8585 77.7322 33.4501C76.3415 34.0418 75.1602 35.0345 74.3402 36.3007C74.0143 36.7642 73.5776 37.1395 73.0697 37.3926C72.5618 37.6457 71.9986 37.7687 71.431 37.7505H67.2054C66.6384 37.7655 66.0763 37.641 65.5689 37.3882C65.0616 37.1353 64.6245 36.7619 64.2962 36.3007C63.4677 35.0483 62.2835 34.0705 60.8948 33.492C59.5061 32.9136 57.9759 32.7608 56.4997 33.0532C55.0481 33.3315 53.7111 34.03 52.6555 35.0614C51.6 36.0928 50.8729 37.4114 50.565 38.8523C50.3271 39.9591 50.3401 41.1048 50.6031 42.2059C50.8661 43.3069 51.3724 44.3356 52.085 45.2168C52.7935 46.0872 53.6882 46.7889 54.7037 47.2704C55.7191 47.752 56.8297 48.0014 57.9543 48.0004C59.1937 47.9974 60.4132 47.6903 61.5054 47.1063C62.5975 46.5222 63.5285 45.6791 64.2163 44.6514Z" fill="white"/>
<path d="M75.5886 64.9478C75.9006 64.4553 76.3289 64.0466 76.836 63.7572C77.3432 63.4678 77.9137 63.3067 78.4977 63.2878H82.927C83.5113 63.3054 84.0823 63.4661 84.5896 63.7555C85.0969 64.045 85.525 64.4545 85.8361 64.9478C86.5294 65.9579 87.4594 66.7843 88.5455 67.3553C89.6316 67.9263 90.8411 68.2245 92.069 68.2242C93.1927 68.2262 94.3025 67.9772 95.317 67.4955C96.3314 67.0138 97.2246 66.3117 97.931 65.4407C98.6469 64.5612 99.1552 63.5326 99.4183 62.431C99.6814 61.3293 99.6926 60.1827 99.4511 59.0762C99.1449 57.6344 98.4183 56.3149 97.3625 55.2832C96.3067 54.2515 94.9687 53.5536 93.5163 53.2771C92.0317 52.9913 90.4952 53.1548 89.1045 53.7465C87.7138 54.3381 86.5325 55.3308 85.7125 56.597C85.3866 57.0605 84.9499 57.4358 84.442 57.6889C83.9341 57.942 83.3709 58.065 82.8033 58.0468H78.5777C78.0107 58.0618 77.4486 57.9374 76.9413 57.6845C76.4339 57.4317 75.9968 57.0582 75.6686 56.597C74.84 55.3446 73.6558 54.3668 72.2671 53.7884C70.8784 53.2099 69.3482 53.0571 67.872 53.3495C66.4204 53.6278 65.0834 54.3263 64.0278 55.3577C62.9723 56.3891 62.2452 57.7077 61.9373 59.1486C61.6994 60.2554 61.7125 61.4011 61.9754 62.5022C62.2384 63.6032 62.7447 64.6319 63.4573 65.5132C64.1659 66.3835 65.0605 67.0852 66.076 67.5668C67.0914 68.0484 68.202 68.2978 69.3266 68.2967C70.566 68.2937 71.7856 67.9866 72.8777 67.4026C73.9698 66.8185 74.9008 65.9754 75.5886 64.9478Z" fill="white"/>
<path d="M54.0677 104.256C53.5606 104.546 53.1323 104.954 52.8203 105.447C52.1325 106.475 51.2015 107.318 50.1094 107.902C49.0173 108.486 47.7977 108.793 46.5583 108.796C45.4337 108.797 44.3231 108.547 43.3077 108.066C42.2922 107.584 41.3976 106.883 40.689 106.012C39.9764 105.131 39.4701 104.102 39.2071 103.001C38.9442 101.9 38.9311 100.755 39.169 99.6478C39.4769 98.2068 40.204 96.8883 41.2595 95.8569C42.3151 94.8255 43.6521 94.127 45.1037 93.8487C46.5799 93.5563 48.1101 93.709 49.4988 94.2875C50.8875 94.8659 52.0717 95.8438 52.9003 97.0962C53.2285 97.5573 53.6656 97.9308 54.173 98.1836C54.6803 98.4365 55.2424 98.5609 55.8094 98.546H60.035C60.6026 98.5642 61.1658 98.4412 61.6737 98.188C62.1816 97.9349 62.6183 97.5597 62.9442 97.0962C63.7642 95.83 64.9455 94.8372 66.3362 94.2456C67.7269 93.6539 69.2634 93.4905 70.748 93.7762C72.2004 94.0527 73.5384 94.7506 74.5942 95.7823C75.0458 96.2236 75.4372 96.7175 75.7612 97.2512C76.0735 97.6413 76.4676 97.9598 76.9168 98.1836C77.4242 98.4365 77.9863 98.5609 78.5533 98.546H82.7789C83.3465 98.5642 83.9097 98.4412 84.4176 98.188C84.9255 97.9349 85.3622 97.5597 85.6881 97.0962C86.5081 95.83 87.6894 94.8372 89.0801 94.2456C90.4708 93.6539 92.0073 93.4905 93.4919 93.7762C94.9443 94.0527 96.2823 94.7506 97.3381 95.7823C98.3939 96.814 99.1205 98.1335 99.4266 99.5753C99.6682 100.682 99.657 101.828 99.3939 102.93C99.1307 104.032 98.6225 105.06 97.9066 105.94C97.2002 106.811 96.307 107.513 95.2926 107.995C94.2781 108.476 93.1683 108.725 92.0446 108.723C90.8167 108.724 89.6072 108.425 88.5211 107.854C87.435 107.283 86.5049 106.457 85.8117 105.447C85.5006 104.954 85.0725 104.544 84.5652 104.255C84.0579 103.965 83.4869 103.805 82.9025 103.787H78.4733C77.8893 103.806 77.3188 103.967 76.8116 104.256C76.3045 104.546 75.8762 104.954 75.5642 105.447C74.8764 106.475 73.9454 107.318 72.8532 107.902C71.7611 108.486 70.5416 108.793 69.3022 108.796C68.1776 108.797 67.067 108.547 66.0516 108.066C65.0361 107.584 64.1414 106.883 63.4329 106.012C63.1806 105.7 62.9542 105.37 62.7552 105.024C62.4911 104.717 62.1755 104.457 61.8213 104.255C61.314 103.965 60.743 103.805 60.1586 103.787H55.7294C55.1454 103.806 54.5749 103.967 54.0677 104.256Z" fill="white"/>
<path d="M88.2076 124.506C87.7005 124.795 87.2722 125.204 86.9601 125.697C86.2723 126.724 85.3413 127.567 84.2492 128.151C83.1571 128.736 81.9375 129.043 80.6981 129.046C79.5736 129.047 78.463 128.797 77.4475 128.316C76.4321 127.834 75.5374 127.132 74.8289 126.262C74.1162 125.381 73.6099 124.352 73.347 123.251C73.084 122.15 73.071 121.004 73.3088 119.898C73.6167 118.457 74.3439 117.138 75.3994 116.107C76.4549 115.075 77.792 114.377 79.2435 114.098C80.7198 113.806 82.2499 113.959 83.6386 114.537C85.0274 115.116 86.2116 116.094 87.0401 117.346C87.3683 117.807 87.8054 118.181 88.3128 118.433C88.8202 118.686 89.3822 118.811 89.9493 118.796H94.1749C94.7424 118.814 95.3056 118.691 95.8135 118.438C96.3214 118.185 96.7581 117.809 97.084 117.346C97.9041 116.08 99.0854 115.087 100.476 114.495C101.867 113.904 103.403 113.74 104.888 114.026C106.34 114.302 107.678 115 108.734 116.032C109.79 117.064 110.516 118.383 110.823 119.825C111.064 120.932 111.053 122.078 110.79 123.18C110.527 124.282 110.018 125.31 109.303 126.19C108.596 127.061 107.703 127.763 106.689 128.244C105.674 128.726 104.564 128.975 103.441 128.973C102.213 128.973 101.003 128.675 99.917 128.104C98.8309 127.533 97.9009 126.707 97.2077 125.697C96.8965 125.203 96.4685 124.794 95.9611 124.504C95.4538 124.215 94.8828 124.054 94.2985 124.037H89.8693C89.2852 124.056 88.7147 124.217 88.2076 124.506Z" fill="white"/>
<path d="M119.179 80.9212C119.181 82.9181 119.978 84.8327 121.394 86.2447C122.811 87.6568 124.732 88.4509 126.735 88.4528C128.739 88.4509 130.66 87.6568 132.077 86.2447C133.493 84.8327 134.29 82.9181 134.292 80.9212C134.29 78.9243 133.493 77.0097 132.077 75.5977C130.66 74.1857 128.739 73.3916 126.735 73.3896C124.732 73.3916 122.811 74.1857 121.394 75.5977C119.978 77.0097 119.181 78.9243 119.179 80.9212Z" fill="white"/>
<path d="M52.0293 86.2447C50.6126 84.8327 49.8158 82.9181 49.8139 80.9212C49.8158 78.9243 50.6126 77.0097 52.0293 75.5977C53.446 74.1857 55.3669 73.3916 57.3705 73.3896C59.374 73.3916 61.295 74.1857 62.7117 75.5977C64.1284 77.0097 64.9251 78.9243 64.9271 80.9212C64.9251 82.9181 64.1284 84.8327 62.7117 86.2447C61.295 87.6568 59.374 88.4509 57.3705 88.4528C55.3669 88.4509 53.446 87.6568 52.0293 86.2447Z" fill="white"/>
<path d="M107.207 60.6712C107.209 62.6681 108.006 64.5827 109.423 65.9948C110.839 67.4068 112.76 68.2009 114.764 68.2028C116.767 68.2009 118.688 67.4068 120.105 65.9948C121.522 64.5827 122.318 62.6681 122.32 60.6712C122.318 58.6743 121.522 56.7597 120.105 55.3477C118.688 53.9357 116.767 53.1416 114.764 53.1396C112.76 53.1416 110.839 53.9357 109.423 55.3477C108.006 56.7597 107.209 58.6743 107.207 60.6712V60.6712Z" fill="white"/>
<path d="M39.0234 60.6712C39.0254 62.6681 39.8221 64.5827 41.2388 65.9948C42.6555 67.4068 44.5765 68.2009 46.58 68.2028C48.5835 68.2009 50.5045 67.4068 51.9212 65.9948C53.3379 64.5827 54.1347 62.6681 54.1366 60.6712C54.1347 58.6743 53.3379 56.7597 51.9212 55.3477C50.5045 53.9357 48.5835 53.1416 46.58 53.1396C44.5765 53.1416 42.6555 53.9357 41.2388 55.3477C39.8221 56.7597 39.0254 58.6743 39.0234 60.6712V60.6712Z" fill="white"/>
<path d="M107.207 101.171C107.209 103.168 108.006 105.083 109.423 106.495C110.839 107.907 112.76 108.701 114.764 108.703C116.767 108.701 118.688 107.907 120.105 106.495C121.522 105.083 122.318 103.168 122.32 101.171C122.318 99.1743 121.522 97.2597 120.105 95.8477C118.688 94.4357 116.767 93.6416 114.764 93.6396C112.76 93.6416 110.839 94.4357 109.423 95.8477C108.006 97.2597 107.209 99.1743 107.207 101.171V101.171Z" fill="white"/>
</svg>
