<svg width="702" height="162" viewBox="0 0 702 162" fill="none" xmlns="http://www.w3.org/2000/svg">
<path d="M213.136 69.9794V87.838C213.136 107.31 225.077 118.069 243.689 118.069C262.301 118.069 274.135 107.31 274.135 87.838V69.9794C274.135 50.507 262.301 39.7488 243.689 39.7488C225.077 39.7488 213.136 50.507 213.136 69.9794ZM225.615 69.549C225.615 58.1453 232.285 50.8297 243.689 50.8297C254.985 50.8297 261.655 58.1453 261.655 69.549V88.2684C261.655 99.6721 254.985 106.988 243.689 106.988C232.285 106.988 225.615 99.6721 225.615 88.2684V69.549ZM284.745 138.079H296.472V109.032H297.548C300.56 113.658 305.939 118.069 315.729 118.069C328.746 118.069 340.043 107.31 340.043 89.9897C340.043 72.7765 328.746 62.0183 315.729 62.0183C305.939 62.0183 300.56 66.4292 297.332 71.2704H296.257V63.5244H284.745V138.079ZM312.286 107.848C303.142 107.848 296.364 101.178 296.364 89.9897C296.364 78.8011 303.142 72.131 312.286 72.131C321.538 72.131 328.209 78.8011 328.209 89.9897C328.209 101.286 321.538 107.848 312.286 107.848ZM346.758 89.7745C346.758 106.45 357.731 118.069 373.869 118.069C388.5 118.069 394.74 109.677 397.86 104.083L388.07 98.8114C385.918 103.437 382.153 107.848 374.084 107.848C365.585 107.848 359.345 101.931 358.915 93.7551H399.151V88.9139C399.151 72.6689 388.823 61.9107 373.438 61.9107C357.839 61.9107 346.758 73.2068 346.758 89.7745ZM359.022 84.6106C359.991 77.1874 365.155 72.131 373.331 72.131C381.184 72.131 386.456 76.9722 387.101 84.6106H359.022ZM408.717 63.5244V116.562H420.443V89.3442C420.443 78.3708 426.145 72.2386 434.967 72.2386C442.821 72.2386 447.447 76.4343 447.447 85.3636V116.562H459.281V84.7181C459.281 71.1628 450.674 62.5562 438.517 62.5562C428.405 62.5562 423.671 67.0747 421.304 71.7007H420.228V63.5244H408.717ZM472.071 41.2549V116.562H484.551V84.3954H517.363V73.2068H484.551V52.551H519.515V41.2549H472.071ZM526.007 87.6229C526.007 107.095 537.949 118.069 556.775 118.069C575.172 118.069 585.823 107.418 585.823 89.8821V79.2315H553.871V89.8821H573.558V91.2807C573.558 100.855 567.964 106.988 556.775 106.988C545.479 106.988 538.486 99.6721 538.486 87.7304V70.087C538.486 58.1453 545.479 50.8297 556.775 50.8297C567.749 50.8297 572.913 57.2847 572.913 66.214V67.6126H585.392V66.4292C585.392 50.3994 575.387 39.7488 556.775 39.7488C538.056 39.7488 526.007 50.7221 526.007 70.3021V87.6229ZM611.022 41.2549L588.86 116.562H601.662L606.719 99.0266H634.69L639.747 116.562H652.441L630.279 41.2549H611.022ZM609.731 87.7304L620.167 51.6904H621.242L631.57 87.7304H609.731Z" fill="black"/>
<path d="M646.626 41.1727V43.3484H651.164V55.6777H653.547V43.3484H658.085V41.1727H646.626ZM659.622 41.1727V55.6777H661.943V43.6592H662.15L665.714 55.6777H669.092L672.635 43.6592H672.842V55.6777H675.184V41.1727H671.06L667.496 53.2533H667.289L663.746 41.1727H659.622Z" fill="black"/>
<path d="M128.769 0.209961H32.5752C14.6915 0.209961 0.193848 14.7076 0.193848 32.5913V128.785C0.193848 146.669 14.6915 161.166 32.5752 161.166H128.769C146.653 161.166 161.15 146.669 161.15 128.785V32.5913C161.15 14.7076 146.653 0.209961 128.769 0.209961Z" fill="black"/>
<path d="M95.8593 40.1654C95.8612 42.1623 96.6579 44.0769 98.0746 45.4889C99.4914 46.9009 101.412 47.695 103.416 47.697C105.419 47.695 107.34 46.9009 108.757 45.4889C110.174 44.0769 110.97 42.1623 110.972 40.1654C110.97 38.1685 110.174 36.2539 108.757 34.8419C107.34 33.4298 105.419 32.6357 103.416 32.6338C101.412 32.6357 99.4914 33.4298 98.0746 34.8419C96.6579 36.2539 95.8612 38.1685 95.8593 40.1654V40.1654Z" fill="white"/>
<path d="M50.3717 121.163C50.3736 123.16 51.1704 125.075 52.5871 126.487C54.0038 127.899 55.9247 128.693 57.9283 128.695C59.9318 128.693 61.8527 127.899 63.2695 126.487C64.6862 125.075 65.4829 123.16 65.4848 121.163C65.4829 119.167 64.6862 117.252 63.2695 115.84C61.8527 114.428 59.9318 113.634 57.9283 113.632C55.9247 113.634 54.0038 114.428 52.5871 115.84C51.1704 117.252 50.3736 119.167 50.3717 121.163V121.163Z" fill="white"/>
<path d="M95.3015 80.6644C95.3034 82.6613 96.1001 84.5759 97.5168 85.9879C98.9336 87.3999 100.854 88.1941 102.858 88.196C104.862 88.1941 106.782 87.3999 108.199 85.9879C109.616 84.5759 110.413 82.6613 110.415 80.6644C110.413 78.6675 109.616 76.7529 108.199 75.3409C106.782 73.9288 104.862 73.1347 102.858 73.1328C100.854 73.1347 98.9336 73.9288 97.5168 75.3409C96.1001 76.7529 95.3034 78.6675 95.3015 80.6644V80.6644Z" fill="white"/>
<path d="M27.0516 80.6644C27.0536 82.6613 27.8503 84.5759 29.267 85.9879C30.6837 87.3999 32.6047 88.1941 34.6082 88.196C36.6117 88.1941 38.5327 87.3999 39.9494 85.9879C41.3661 84.5759 42.1629 82.6613 42.1648 80.6644C42.1629 78.6675 41.3661 76.7529 39.9494 75.3409C38.5327 73.9288 36.6117 73.1347 34.6082 73.1328C32.6047 73.1347 30.6837 73.9288 29.267 75.3409C27.8503 76.7529 27.0536 78.6675 27.0516 80.6644V80.6644Z" fill="white"/>
<path d="M64.2163 44.3946C64.5283 43.9022 64.9566 43.4934 65.4637 43.2041C65.9709 42.9147 66.5414 42.7535 67.1254 42.7346H71.5546C72.139 42.7523 72.71 42.9129 73.2173 43.2024C73.7246 43.4919 74.1527 43.9013 74.4638 44.3946C75.157 45.4048 76.0871 46.2312 77.1732 46.8021C78.2593 47.3731 79.4688 47.6714 80.6967 47.6711C81.8204 47.6731 82.9302 47.4241 83.9447 46.9424C84.9591 46.4607 85.8523 45.7585 86.5587 44.8875C87.2746 44.0081 87.7828 42.9795 88.046 41.8778C88.3091 40.7761 88.3203 39.6296 88.0787 38.523C87.7726 37.0812 87.046 35.7617 85.9902 34.73C84.9344 33.6983 83.5964 33.0004 82.144 32.7239C80.6594 32.4382 79.1229 32.6017 77.7322 33.1933C76.3415 33.7849 75.1602 34.7777 74.3402 36.0439C74.0143 36.5074 73.5776 36.8826 73.0697 37.1357C72.5618 37.3889 71.9986 37.5119 71.431 37.4937H67.2054C66.6384 37.5086 66.0763 37.3842 65.5689 37.1314C65.0616 36.8785 64.6245 36.505 64.2962 36.0439C63.4677 34.7915 62.2835 33.8136 60.8948 33.2352C59.5061 32.6568 57.9759 32.504 56.4997 32.7964C55.0481 33.0747 53.7111 33.7732 52.6555 34.8046C51.6 35.836 50.8729 37.1545 50.565 38.5955C50.3271 39.7022 50.3401 40.8479 50.6031 41.949C50.8661 43.0501 51.3724 44.0788 52.085 44.96C52.7935 45.8304 53.6882 46.532 54.7037 47.0136C55.7191 47.4952 56.8297 47.7446 57.9543 47.7436C59.1937 47.7406 60.4132 47.4335 61.5054 46.8494C62.5975 46.2653 63.5285 45.4223 64.2163 44.3946Z" fill="white"/>
<path d="M75.5886 64.6909C75.9006 64.1985 76.3289 63.7897 76.836 63.5004C77.3432 63.211 77.9137 63.0498 78.4977 63.0309H82.927C83.5113 63.0486 84.0823 63.2092 84.5896 63.4987C85.0969 63.7882 85.525 64.1976 85.8361 64.6909C86.5294 65.7011 87.4594 66.5275 88.5455 67.0985C89.6316 67.6694 90.8411 67.9677 92.069 67.9674C93.1927 67.9694 94.3025 67.7204 95.317 67.2387C96.3314 66.757 97.2246 66.0548 97.931 65.1838C98.6469 64.3044 99.1552 63.2758 99.4183 62.1741C99.6814 61.0724 99.6926 59.9259 99.4511 58.8193C99.1449 57.3776 98.4183 56.058 97.3625 55.0263C96.3067 53.9946 94.9687 53.2967 93.5163 53.0202C92.0317 52.7345 90.4952 52.898 89.1045 53.4896C87.7138 54.0813 86.5325 55.074 85.7125 56.3402C85.3866 56.8037 84.9499 57.1789 84.442 57.4321C83.9341 57.6852 83.3709 57.8082 82.8033 57.79H78.5777C78.0107 57.805 77.4486 57.6805 76.9413 57.4277C76.4339 57.1748 75.9968 56.8013 75.6686 56.3402C74.84 55.0878 73.6558 54.11 72.2671 53.5315C70.8784 52.9531 69.3482 52.8003 67.872 53.0927C66.4204 53.371 65.0834 54.0695 64.0278 55.1009C62.9723 56.1323 62.2452 57.4509 61.9373 58.8918C61.6994 59.9986 61.7125 61.1443 61.9754 62.2453C62.2384 63.3464 62.7447 64.3751 63.4573 65.2563C64.1659 66.1267 65.0605 66.8283 66.076 67.3099C67.0914 67.7915 68.202 68.0409 69.3266 68.0399C70.566 68.0369 71.7856 67.7298 72.8777 67.1457C73.9698 66.5617 74.9008 65.7186 75.5886 64.6909Z" fill="white"/>
<path d="M54.0677 104C53.5606 104.289 53.1323 104.698 52.8203 105.19C52.1325 106.218 51.2015 107.061 50.1094 107.645C49.0173 108.229 47.7977 108.536 46.5583 108.539C45.4337 108.54 44.3231 108.291 43.3077 107.809C42.2922 107.327 41.3976 106.626 40.689 105.755C39.9764 104.874 39.4701 103.846 39.2071 102.744C38.9442 101.643 38.9311 100.498 39.169 99.3909C39.4769 97.95 40.204 96.6314 41.2595 95.6C42.3151 94.5686 43.6521 93.8701 45.1037 93.5918C46.5799 93.2994 48.1101 93.4522 49.4988 94.0307C50.8875 94.6091 52.0717 95.5869 52.9003 96.8393C53.2285 97.3005 53.6656 97.674 54.173 97.9268C54.6803 98.1797 55.2424 98.3041 55.8094 98.2891H60.035C60.6026 98.3073 61.1658 98.1843 61.6737 97.9312C62.1816 97.6781 62.6183 97.3028 62.9442 96.8393C63.7642 95.5731 64.9455 94.5804 66.3362 93.9888C67.7269 93.3971 69.2634 93.2336 70.748 93.5193C72.2004 93.7959 73.5384 94.4938 74.5942 95.5255C75.0458 95.9668 75.4372 96.4607 75.7612 96.9944C76.0735 97.3845 76.4676 97.7029 76.9168 97.9268C77.4242 98.1797 77.9863 98.3041 78.5533 98.2891H82.7789C83.3465 98.3073 83.9097 98.1843 84.4176 97.9312C84.9255 97.6781 85.3622 97.3028 85.6881 96.8393C86.5081 95.5731 87.6894 94.5804 89.0801 93.9888C90.4708 93.3971 92.0073 93.2336 93.4919 93.5193C94.9443 93.7959 96.2823 94.4938 97.3381 95.5255C98.3939 96.5572 99.1205 97.8767 99.4266 99.3185C99.6682 100.425 99.657 101.572 99.3939 102.673C99.1307 103.775 98.6225 104.804 97.9066 105.683C97.2002 106.554 96.307 107.256 95.2926 107.738C94.2781 108.22 93.1683 108.469 92.0446 108.467C90.8167 108.467 89.6072 108.169 88.5211 107.598C87.435 107.027 86.5049 106.2 85.8117 105.19C85.5006 104.697 85.0725 104.287 84.5652 103.998C84.0579 103.708 83.4869 103.548 82.9025 103.53H78.4733C77.8893 103.549 77.3188 103.71 76.8116 104C76.3045 104.289 75.8762 104.698 75.5642 105.19C74.8764 106.218 73.9454 107.061 72.8532 107.645C71.7611 108.229 70.5416 108.536 69.3022 108.539C68.1776 108.54 67.067 108.291 66.0516 107.809C65.0361 107.327 64.1414 106.626 63.4329 105.755C63.1806 105.443 62.9542 105.113 62.7552 104.767C62.4911 104.461 62.1755 104.2 61.8213 103.998C61.314 103.708 60.743 103.548 60.1586 103.53H55.7294C55.1454 103.549 54.5749 103.71 54.0677 104Z" fill="white"/>
<path d="M88.2076 124.249C87.7005 124.539 87.2722 124.947 86.9601 125.44C86.2723 126.467 85.3413 127.311 84.2492 127.895C83.1571 128.479 81.9375 128.786 80.6981 128.789C79.5736 128.79 78.463 128.54 77.4475 128.059C76.4321 127.577 75.5374 126.876 74.8289 126.005C74.1162 125.124 73.6099 124.095 73.347 122.994C73.084 121.893 73.071 120.747 73.3088 119.641C73.6167 118.2 74.3439 116.881 75.3994 115.85C76.4549 114.818 77.792 114.12 79.2435 113.842C80.7198 113.549 82.2499 113.702 83.6386 114.28C85.0274 114.859 86.2116 115.837 87.0401 117.089C87.3683 117.55 87.8054 117.924 88.3128 118.177C88.8202 118.429 89.3822 118.554 89.9493 118.539H94.1749C94.7424 118.557 95.3056 118.434 95.8135 118.181C96.3214 117.928 96.7581 117.553 97.084 117.089C97.9041 115.823 99.0854 114.83 100.476 114.238C101.867 113.647 103.403 113.483 104.888 113.769C106.34 114.046 107.678 114.744 108.734 115.775C109.79 116.807 110.516 118.126 110.823 119.568C111.064 120.675 111.053 121.821 110.79 122.923C110.527 124.025 110.018 125.053 109.303 125.933C108.596 126.804 107.703 127.506 106.689 127.988C105.674 128.469 104.564 128.718 103.441 128.716C102.213 128.717 101.003 128.418 99.917 127.847C98.8309 127.276 97.9009 126.45 97.2077 125.44C96.8965 124.946 96.4685 124.537 95.9611 124.248C95.4538 123.958 94.8828 123.797 94.2985 123.78H89.8693C89.2852 123.799 88.7147 123.96 88.2076 124.249Z" fill="white"/>
<path d="M119.179 80.6644C119.181 82.6613 119.978 84.5759 121.394 85.9879C122.811 87.3999 124.732 88.1941 126.735 88.196C128.739 88.1941 130.66 87.3999 132.077 85.9879C133.493 84.5759 134.29 82.6613 134.292 80.6644C134.29 78.6675 133.493 76.7529 132.077 75.3409C130.66 73.9288 128.739 73.1347 126.735 73.1328C124.732 73.1347 122.811 73.9288 121.394 75.3409C119.978 76.7529 119.181 78.6675 119.179 80.6644Z" fill="white"/>
<path d="M52.0293 85.9879C50.6126 84.5759 49.8158 82.6613 49.8139 80.6644C49.8158 78.6675 50.6126 76.7529 52.0293 75.3409C53.446 73.9288 55.3669 73.1347 57.3705 73.1328C59.374 73.1347 61.295 73.9288 62.7117 75.3409C64.1284 76.7529 64.9251 78.6675 64.9271 80.6644C64.9251 82.6613 64.1284 84.5759 62.7117 85.9879C61.295 87.3999 59.374 88.1941 57.3705 88.196C55.3669 88.1941 53.446 87.3999 52.0293 85.9879Z" fill="white"/>
<path d="M107.207 60.4144C107.209 62.4113 108.006 64.3259 109.423 65.7379C110.839 67.1499 112.76 67.9441 114.764 67.946C116.767 67.9441 118.688 67.1499 120.105 65.7379C121.522 64.3259 122.318 62.4113 122.32 60.4144C122.318 58.4175 121.522 56.5029 120.105 55.0909C118.688 53.6788 116.767 52.8847 114.764 52.8828C112.76 52.8847 110.839 53.6788 109.423 55.0909C108.006 56.5029 107.209 58.4175 107.207 60.4144V60.4144Z" fill="white"/>
<path d="M39.0234 60.4144C39.0254 62.4113 39.8221 64.3259 41.2388 65.7379C42.6555 67.1499 44.5765 67.9441 46.58 67.946C48.5835 67.9441 50.5045 67.1499 51.9212 65.7379C53.3379 64.3259 54.1347 62.4113 54.1366 60.4144C54.1347 58.4175 53.3379 56.5029 51.9212 55.0909C50.5045 53.6788 48.5835 52.8847 46.58 52.8828C44.5765 52.8847 42.6555 53.6788 41.2388 55.0909C39.8221 56.5029 39.0254 58.4175 39.0234 60.4144V60.4144Z" fill="white"/>
<path d="M107.207 100.914C107.209 102.911 108.006 104.826 109.423 106.238C110.839 107.65 112.76 108.444 114.764 108.446C116.767 108.444 118.688 107.65 120.105 106.238C121.522 104.826 122.318 102.911 122.32 100.914C122.318 98.9175 121.522 97.0029 120.105 95.5909C118.688 94.1788 116.767 93.3847 114.764 93.3828C112.76 93.3847 110.839 94.1788 109.423 95.5909C108.006 97.0029 107.209 98.9175 107.207 100.914V100.914Z" fill="white"/>
</svg>
