<svg width="467" height="468" viewBox="0 0 467 468" fill="none" xmlns="http://www.w3.org/2000/svg">
<circle cx="233.317" cy="233.801" r="233.234" fill="black"/>
<path d="M276.938 117.413C276.943 123.148 279.232 128.647 283.301 132.703C287.37 136.759 292.887 139.039 298.642 139.045C304.396 139.039 309.914 136.759 313.983 132.703C318.052 128.647 320.34 123.148 320.346 117.413C320.34 111.677 318.052 106.178 313.983 102.122C309.914 98.0667 304.396 95.7858 298.642 95.7803C292.887 95.7858 287.37 98.0667 283.301 102.122C279.232 106.178 276.943 111.677 276.938 117.413Z" fill="white"/>
<path d="M146.288 350.056C146.293 355.792 148.582 361.291 152.651 365.346C156.72 369.402 162.237 371.683 167.992 371.688C173.746 371.683 179.264 369.402 183.333 365.346C187.402 361.291 189.69 355.792 189.696 350.056C189.69 344.321 187.402 338.822 183.333 334.766C179.264 330.71 173.746 328.429 167.992 328.424C162.237 328.429 156.72 330.71 152.651 334.766C148.582 338.822 146.293 344.321 146.288 350.056Z" fill="white"/>
<path d="M275.336 233.735C275.341 239.47 277.63 244.969 281.699 249.025C285.768 253.081 291.285 255.362 297.04 255.367C302.795 255.362 308.312 253.081 312.381 249.025C316.45 244.969 318.739 239.47 318.744 233.735C318.739 227.999 316.45 222.5 312.381 218.445C308.312 214.389 302.795 212.108 297.04 212.103C291.285 212.108 285.768 214.389 281.699 218.445C277.63 222.5 275.341 227.999 275.336 233.735Z" fill="white"/>
<path d="M79.3081 233.735C79.3136 239.47 81.6021 244.969 85.6712 249.025C89.7403 253.081 95.2576 255.362 101.012 255.367C106.767 255.362 112.284 253.081 116.353 249.025C120.422 244.969 122.711 239.47 122.716 233.735C122.711 227.999 120.422 222.5 116.353 218.445C112.284 214.389 106.767 212.108 101.012 212.103C95.2576 212.108 89.7403 214.389 85.6712 218.445C81.6021 222.5 79.3136 227.999 79.3081 233.735Z" fill="white"/>
<path d="M186.053 129.56C186.949 128.145 188.179 126.971 189.636 126.14C191.092 125.309 192.731 124.846 194.408 124.792H207.13C208.808 124.843 210.448 125.304 211.906 126.135C213.363 126.967 214.592 128.143 215.486 129.56C217.477 132.461 220.148 134.835 223.268 136.475C226.387 138.115 229.861 138.971 233.388 138.97C236.616 138.976 239.803 138.261 242.717 136.878C245.631 135.494 248.196 133.477 250.225 130.975C252.281 128.45 253.741 125.495 254.497 122.331C255.252 119.167 255.285 115.874 254.591 112.695C253.712 108.554 251.625 104.764 248.592 101.801C245.56 98.8377 241.716 96.8332 237.545 96.039C233.281 95.2183 228.868 95.6879 224.873 97.3872C220.879 99.0865 217.486 101.938 215.131 105.575C214.195 106.906 212.94 107.984 211.482 108.711C210.023 109.438 208.405 109.791 206.775 109.739H194.638C193.009 109.782 191.395 109.424 189.938 108.698C188.481 107.972 187.225 106.899 186.282 105.575C183.903 101.978 180.501 99.1689 176.513 97.5075C172.524 95.8461 168.129 95.4073 163.889 96.2472C159.72 97.0465 155.879 99.0527 152.848 102.015C149.816 104.978 147.728 108.765 146.843 112.903C146.16 116.082 146.198 119.373 146.953 122.535C147.708 125.698 149.162 128.653 151.209 131.184C153.244 133.684 155.814 135.699 158.73 137.082C161.647 138.465 164.837 139.182 168.067 139.179C171.627 139.17 175.13 138.288 178.266 136.61C181.403 134.933 184.077 132.511 186.053 129.56Z" fill="url(#paint0_linear_26_4982)"/>
<path d="M218.716 187.855C219.613 186.441 220.843 185.267 222.299 184.436C223.756 183.604 225.395 183.142 227.072 183.087H239.794C241.472 183.138 243.112 183.599 244.569 184.431C246.026 185.262 247.256 186.438 248.15 187.855C250.141 190.757 252.812 193.13 255.931 194.77C259.051 196.41 262.525 197.267 266.052 197.266C269.279 197.272 272.467 196.556 275.381 195.173C278.294 193.789 280.86 191.773 282.889 189.271C284.945 186.745 286.405 183.791 287.16 180.626C287.916 177.462 287.948 174.169 287.255 170.991C286.375 166.85 284.288 163.06 281.256 160.096C278.223 157.133 274.38 155.129 270.209 154.334C265.945 153.514 261.531 153.983 257.537 155.683C253.543 157.382 250.15 160.233 247.794 163.87C246.858 165.201 245.604 166.279 244.145 167.006C242.686 167.733 241.069 168.086 239.439 168.034H227.302C225.673 168.077 224.059 167.72 222.602 166.993C221.144 166.267 219.889 165.195 218.946 163.87C216.566 160.273 213.165 157.464 209.176 155.803C205.188 154.141 200.793 153.703 196.553 154.543C192.384 155.342 188.543 157.348 185.512 160.31C182.48 163.273 180.391 167.06 179.507 171.199C178.824 174.378 178.861 177.668 179.617 180.831C180.372 183.993 181.826 186.948 183.873 189.479C185.908 191.979 188.478 193.994 191.394 195.377C194.311 196.761 197.501 197.477 200.731 197.474C204.29 197.465 207.793 196.583 210.93 194.906C214.067 193.228 216.741 190.807 218.716 187.855Z" fill="url(#paint1_linear_26_4982)"/>
<path d="M156.904 300.758C155.447 301.589 154.217 302.763 153.321 304.177C151.346 307.129 148.671 309.55 145.535 311.228C142.398 312.906 138.895 313.788 135.335 313.796C132.105 313.799 128.915 313.083 125.999 311.7C123.082 310.316 120.512 308.301 118.477 305.801C116.431 303.27 114.976 300.316 114.221 297.153C113.466 293.99 113.428 290.7 114.112 287.521C114.996 283.382 117.084 279.595 120.116 276.633C123.148 273.67 126.988 271.664 131.157 270.865C135.397 270.025 139.792 270.464 143.781 272.125C147.77 273.786 151.171 276.595 153.551 280.192C154.493 281.517 155.749 282.589 157.206 283.316C158.663 284.042 160.278 284.399 161.906 284.356H174.043C175.673 284.409 177.291 284.055 178.75 283.328C180.209 282.601 181.463 281.523 182.399 280.192C184.754 276.555 188.147 273.704 192.142 272.005C196.136 270.305 200.549 269.836 204.813 270.656C208.985 271.451 212.828 273.455 215.86 276.418C217.158 277.686 218.282 279.105 219.212 280.637C220.109 281.758 221.241 282.673 222.531 283.316C223.989 284.042 225.603 284.399 227.232 284.356H239.369C240.999 284.409 242.616 284.055 244.075 283.328C245.534 282.601 246.788 281.523 247.724 280.192C250.08 276.555 253.473 273.704 257.467 272.005C261.461 270.305 265.874 269.836 270.139 270.656C274.31 271.451 278.153 273.455 281.186 276.418C284.218 279.382 286.305 283.172 287.184 287.313C287.878 290.491 287.846 293.784 287.09 296.948C286.335 300.113 284.875 303.067 282.819 305.593C280.79 308.095 278.224 310.111 275.31 311.495C272.397 312.879 269.209 313.594 265.982 313.588C262.455 313.589 258.981 312.732 255.861 311.092C252.742 309.452 250.071 307.079 248.079 304.177C247.186 302.76 245.956 301.584 244.499 300.753C243.042 299.921 241.402 299.46 239.724 299.409H227.002C225.325 299.464 223.686 299.927 222.229 300.758C220.773 301.589 219.543 302.763 218.646 304.177C216.671 307.129 213.997 309.55 210.86 311.228C207.723 312.906 204.22 313.788 200.66 313.796C197.431 313.799 194.241 313.083 191.324 311.7C188.407 310.316 185.838 308.301 183.803 305.801C183.078 304.905 182.428 303.956 181.856 302.963C181.098 302.082 180.191 301.333 179.174 300.753C177.717 299.921 176.077 299.46 174.398 299.409H161.677C159.999 299.464 158.361 299.927 156.904 300.758Z" fill="url(#paint2_linear_26_4982)"/>
<path d="M254.961 358.919C253.504 359.75 252.274 360.924 251.378 362.339C249.402 365.29 246.728 367.712 243.592 369.39C240.455 371.067 236.952 371.949 233.392 371.958C230.162 371.961 226.972 371.244 224.056 369.861C221.139 368.478 218.569 366.463 216.534 363.963C214.487 361.432 213.033 358.477 212.278 355.315C211.523 352.152 211.485 348.861 212.168 345.683C213.053 341.544 215.141 337.757 218.173 334.794C221.205 331.832 225.045 329.826 229.214 329.026C233.454 328.186 237.849 328.625 241.838 330.287C245.827 331.948 249.228 334.757 251.608 338.354C252.55 339.678 253.806 340.751 255.263 341.477C256.72 342.203 258.335 342.561 259.963 342.518H272.1C273.73 342.57 275.348 342.217 276.807 341.49C278.266 340.763 279.52 339.685 280.456 338.354C282.811 334.717 286.204 331.866 290.199 330.166C294.193 328.467 298.606 327.997 302.87 328.818C307.042 329.612 310.885 331.617 313.917 334.58C316.95 337.543 319.037 341.333 319.916 345.474C320.61 348.653 320.578 351.946 319.822 355.11C319.066 358.274 317.606 361.229 315.55 363.755C313.521 366.256 310.956 368.273 308.042 369.657C305.128 371.04 301.941 371.755 298.713 371.75C295.186 371.75 291.713 370.894 288.593 369.254C285.473 367.614 282.802 365.24 280.811 362.339C279.917 360.922 278.688 359.746 277.231 358.915C275.774 358.083 274.134 357.622 272.455 357.571H259.734C258.056 357.625 256.417 358.088 254.961 358.919Z" fill="url(#paint3_linear_26_4982)"/>
<path d="M343.917 233.734C343.923 239.47 346.211 244.969 350.28 249.025C354.349 253.08 359.866 255.361 365.621 255.367C371.376 255.361 376.893 253.08 380.962 249.025C385.031 244.969 387.32 239.47 387.325 233.734C387.32 227.999 385.031 222.5 380.962 218.444C376.893 214.388 371.376 212.107 365.621 212.102C359.866 212.107 354.349 214.388 350.28 218.444C346.211 222.5 343.923 227.999 343.917 233.734Z" fill="url(#paint4_linear_26_4982)"/>
<path d="M151.049 249.025C146.98 244.969 144.692 239.47 144.686 233.734C144.692 227.999 146.98 222.5 151.049 218.444C155.118 214.388 160.636 212.107 166.39 212.102C172.145 212.107 177.662 214.388 181.731 218.444C185.8 222.5 188.089 227.999 188.094 233.734C188.089 239.47 185.8 244.969 181.731 249.025C177.662 253.08 172.145 255.361 166.39 255.367C160.636 255.361 155.118 253.08 151.049 249.025Z" fill="url(#paint5_linear_26_4982)"/>
<path d="M309.531 175.573C309.537 181.308 311.825 186.807 315.895 190.863C319.964 194.919 325.481 197.2 331.236 197.205C336.99 197.2 342.508 194.919 346.577 190.863C350.646 186.807 352.934 181.308 352.94 175.573C352.934 169.837 350.646 164.338 346.577 160.282C342.508 156.227 336.99 153.946 331.236 153.94C325.481 153.946 319.964 156.227 315.895 160.282C311.825 164.338 309.537 169.837 309.531 175.573Z" fill="white"/>
<path d="M113.693 175.573C113.699 181.308 115.987 186.807 120.056 190.863C124.125 194.919 129.643 197.2 135.397 197.205C141.152 197.2 146.669 194.919 150.738 190.863C154.807 186.807 157.096 181.308 157.101 175.573C157.096 169.837 154.807 164.338 150.738 160.282C146.669 156.227 141.152 153.946 135.397 153.94C129.643 153.946 124.125 156.227 120.056 160.282C115.987 164.338 113.699 169.837 113.693 175.573Z" fill="white"/>
<path d="M309.531 291.895C309.537 297.631 311.825 303.13 315.895 307.185C319.964 311.241 325.481 313.522 331.236 313.527C336.99 313.522 342.508 311.241 346.577 307.185C350.646 303.13 352.934 297.631 352.94 291.895C352.934 286.159 350.646 280.66 346.577 276.605C342.508 272.549 336.99 270.268 331.236 270.263C325.481 270.268 319.964 272.549 315.895 276.605C311.825 280.66 309.537 286.159 309.531 291.895Z" fill="white"/>
<defs>
<linearGradient id="paint0_linear_26_4982" x1="113.625" y1="83.4147" x2="337.626" y2="387.448" gradientUnits="userSpaceOnUse">
<stop stop-color="#00FAFF"/>
<stop offset="1" stop-color="#8BFF95"/>
</linearGradient>
<linearGradient id="paint1_linear_26_4982" x1="113.625" y1="83.4147" x2="337.626" y2="387.448" gradientUnits="userSpaceOnUse">
<stop stop-color="#00FAFF"/>
<stop offset="1" stop-color="#8BFF95"/>
</linearGradient>
<linearGradient id="paint2_linear_26_4982" x1="113.625" y1="83.4147" x2="337.626" y2="387.448" gradientUnits="userSpaceOnUse">
<stop stop-color="#00FAFF"/>
<stop offset="1" stop-color="#8BFF95"/>
</linearGradient>
<linearGradient id="paint3_linear_26_4982" x1="113.625" y1="83.4147" x2="337.626" y2="387.448" gradientUnits="userSpaceOnUse">
<stop stop-color="#00FAFF"/>
<stop offset="1" stop-color="#8BFF95"/>
</linearGradient>
<linearGradient id="paint4_linear_26_4982" x1="113.625" y1="83.4147" x2="337.626" y2="387.448" gradientUnits="userSpaceOnUse">
<stop stop-color="#00FAFF"/>
<stop offset="1" stop-color="#8BFF95"/>
</linearGradient>
<linearGradient id="paint5_linear_26_4982" x1="113.625" y1="83.4147" x2="337.626" y2="387.448" gradientUnits="userSpaceOnUse">
<stop stop-color="#00FAFF"/>
<stop offset="1" stop-color="#8BFF95"/>
</linearGradient>
</defs>
</svg>
