<svg width="201" height="201" viewBox="0 0 201 201" fill="none" xmlns="http://www.w3.org/2000/svg">
<rect width="200" height="200" transform="translate(0.162109 0.945312)" fill="black"/>
<path d="M159.926 0.945312H40.3983C18.1765 0.945312 0.162109 18.9597 0.162109 41.1815V160.709C0.162109 182.931 18.1765 200.945 40.3983 200.945H159.926C182.148 200.945 200.162 182.931 200.162 160.709V41.1815C200.162 18.9597 182.148 0.945312 159.926 0.945312Z" fill="black"/>
<path d="M119.033 50.5929C119.036 53.0742 120.026 55.4532 121.786 57.2078C123.547 58.9623 125.933 59.9491 128.423 59.9515C130.913 59.9491 133.299 58.9623 135.06 57.2078C136.82 55.4532 137.81 53.0742 137.813 50.5929C137.81 48.1116 136.82 45.7326 135.06 43.9781C133.299 42.2235 130.913 41.2368 128.423 41.2344C125.933 41.2368 123.547 42.2235 121.786 43.9781C120.026 45.7326 119.036 48.1116 119.033 50.5929Z" fill="white"/>
<path d="M62.5117 151.239C62.5141 153.721 63.5041 156.1 65.2645 157.854C67.0249 159.609 69.4118 160.596 71.9013 160.598C74.3908 160.596 76.7777 159.609 78.5381 157.854C80.2985 156.1 81.2885 153.721 81.2909 151.239C81.2885 148.758 80.2985 146.379 78.5381 144.625C76.7777 142.87 74.3908 141.883 71.9013 141.881C69.4118 141.883 67.0249 142.87 65.2645 144.625C63.5041 146.379 62.5141 148.758 62.5117 151.239Z" fill="white"/>
<path d="M118.34 100.916C118.343 103.397 119.333 105.776 121.093 107.531C122.853 109.286 125.24 110.272 127.73 110.275C130.219 110.272 132.606 109.286 134.367 107.531C136.127 105.776 137.117 103.397 137.12 100.916C137.117 98.4348 136.127 96.0559 134.367 94.3013C132.606 92.5468 130.219 91.56 127.73 91.5576C125.24 91.56 122.853 92.5468 121.093 94.3013C119.333 96.0559 118.343 98.4348 118.34 100.916Z" fill="white"/>
<path d="M33.5349 100.916C33.5373 103.397 34.5273 105.776 36.2877 107.531C38.0481 109.286 40.4349 110.272 42.9245 110.275C45.414 110.272 47.8009 109.286 49.5613 107.531C51.3217 105.776 52.3117 103.397 52.3141 100.916C52.3117 98.4348 51.3217 96.0559 49.5613 94.3013C47.8009 92.5468 45.414 91.56 42.9245 91.5576C40.4349 91.56 38.0481 92.5468 36.2877 94.3013C34.5273 96.0559 33.5373 98.4348 33.5349 100.916Z" fill="white"/>
<path d="M79.7147 55.8487C80.1024 55.2368 80.6346 54.7289 81.2647 54.3693C81.8949 54.0098 82.6038 53.8095 83.3295 53.786H88.8331C89.5592 53.8079 90.2687 54.0075 90.8991 54.3673C91.5295 54.727 92.0614 55.2357 92.448 55.8487C93.3094 57.1039 94.465 58.1308 95.8146 58.8402C97.1642 59.5497 98.667 59.9203 100.193 59.9199C101.589 59.9224 102.968 59.613 104.229 59.0145C105.489 58.4159 106.599 57.5434 107.477 56.4612C108.366 55.3684 108.998 54.0903 109.325 52.7214C109.652 51.3524 109.666 49.9278 109.366 48.5528C108.985 46.7613 108.082 45.1217 106.77 43.8397C105.458 42.5578 103.796 41.6906 101.991 41.347C100.146 40.9919 98.2372 41.1951 96.5092 41.9302C94.7812 42.6654 93.3133 43.899 92.2944 45.4723C91.8894 46.0482 91.3468 46.5145 90.7157 46.829C90.0846 47.1435 89.3848 47.2964 88.6795 47.2738H83.4289C82.7243 47.2924 82.0259 47.1377 81.3955 46.8236C80.765 46.5094 80.2219 46.0453 79.8141 45.4723C78.7846 43.9161 77.3131 42.7011 75.5875 41.9823C73.8619 41.2635 71.9606 41.0737 70.1263 41.437C68.3226 41.7829 66.6612 42.6508 65.3496 43.9324C64.0381 45.214 63.1345 46.8524 62.752 48.6429C62.4564 50.0181 62.4726 51.4417 62.7994 52.8098C63.1261 54.178 63.7552 55.4562 64.6407 56.5512C65.5211 57.6327 66.6328 58.5046 67.8946 59.103C69.1564 59.7014 70.5364 60.0113 71.9337 60.01C73.4737 60.0063 74.9891 59.6247 76.3462 58.8989C77.7032 58.1732 78.8601 57.1256 79.7147 55.8487Z" fill="url(#paint0_linear_77_4988)"/>
<path d="M93.8456 81.0683C94.2333 80.4564 94.7655 79.9485 95.3957 79.589C96.0258 79.2294 96.7347 79.0291 97.4604 79.0056H102.964C103.69 79.0276 104.4 79.2272 105.03 79.5869C105.66 79.9466 106.192 80.4553 106.579 81.0683C107.44 82.3235 108.596 83.3504 109.945 84.0598C111.295 84.7693 112.798 85.1399 114.324 85.1396C115.72 85.1421 117.099 84.8327 118.36 84.2341C119.62 83.6356 120.73 82.7631 121.608 81.6808C122.497 80.588 123.129 79.3099 123.456 77.941C123.783 76.5721 123.797 75.1474 123.496 73.7724C123.116 71.9809 122.213 70.3413 120.901 69.0593C119.589 67.7774 117.927 66.9102 116.122 66.5666C114.277 66.2116 112.368 66.4147 110.64 67.1499C108.912 67.885 107.444 69.1186 106.425 70.6919C106.02 71.2678 105.478 71.7341 104.847 72.0486C104.215 72.3632 103.516 72.516 102.81 72.4934H97.5598C96.8552 72.512 96.1568 72.3574 95.5264 72.0432C94.8959 71.729 94.3528 71.2649 93.945 70.6919C92.9155 69.1357 91.444 67.9207 89.7184 67.2019C87.9929 66.4832 86.0915 66.2933 84.2572 66.6567C82.4535 67.0025 80.7921 67.8704 79.4806 69.152C78.169 70.4336 77.2655 72.072 76.8829 73.8625C76.5873 75.2377 76.6035 76.6613 76.9303 78.0295C77.257 79.3976 77.8861 80.6759 78.7716 81.7709C79.652 82.8524 80.7637 83.7242 82.0255 84.3226C83.2873 84.921 84.6673 85.2309 86.0646 85.2296C87.6046 85.2259 89.1201 84.8443 90.4771 84.1186C91.8341 83.3928 92.991 82.3452 93.8456 81.0683Z" fill="url(#paint1_linear_77_4988)"/>
<path d="M67.1044 129.912C66.4743 130.272 65.9421 130.78 65.5543 131.391C64.6997 132.668 63.5429 133.716 62.1858 134.442C60.8288 135.167 59.3134 135.549 57.7734 135.553C56.376 135.554 54.996 135.244 53.7342 134.646C52.4725 134.047 51.3608 133.175 50.4804 132.094C49.5949 130.999 48.9658 129.721 48.639 128.353C48.3123 126.984 48.2961 125.561 48.5916 124.186C48.9742 122.395 49.8777 120.757 51.1893 119.475C52.5009 118.193 54.1623 117.326 55.9659 116.98C57.8003 116.616 59.7016 116.806 61.4272 117.525C63.1528 118.244 64.6242 119.459 65.6537 121.015C66.0616 121.588 66.6047 122.052 67.2351 122.366C67.8656 122.68 68.564 122.835 69.2686 122.816H74.5192C75.2244 122.839 75.9242 122.686 76.5553 122.372C77.1865 122.057 77.729 121.591 78.134 121.015C79.153 119.442 80.6208 118.208 82.3489 117.473C84.0769 116.738 85.9861 116.535 87.8309 116.89C89.6355 117.233 91.2981 118.1 92.61 119.382C93.1712 119.931 93.6575 120.545 94.0601 121.208C94.4481 121.692 94.9379 122.088 95.4961 122.366C96.1265 122.68 96.8249 122.835 97.5295 122.816H102.78C103.485 122.839 104.185 122.686 104.816 122.372C105.447 122.057 105.99 121.591 106.395 121.015C107.414 119.442 108.882 118.208 110.61 117.473C112.338 116.738 114.247 116.535 116.092 116.89C117.896 117.233 119.559 118.1 120.871 119.382C122.183 120.664 123.086 122.304 123.466 124.095C123.766 125.47 123.752 126.895 123.425 128.264C123.098 129.633 122.467 130.911 121.577 132.004C120.7 133.086 119.59 133.959 118.329 134.557C117.069 135.156 115.69 135.465 114.293 135.463C112.768 135.463 111.265 135.092 109.915 134.383C108.566 133.673 107.41 132.647 106.549 131.391C106.162 130.778 105.63 130.27 105 129.91C104.369 129.55 103.66 129.351 102.934 129.329H97.4301C96.7044 129.352 95.9955 129.552 95.3653 129.912C94.7352 130.272 94.203 130.78 93.8152 131.391C92.9607 132.668 91.8038 133.716 90.4468 134.442C89.0897 135.167 87.5743 135.549 86.0343 135.553C84.6369 135.554 83.2569 135.244 81.9952 134.646C80.7334 134.047 79.6217 133.175 78.7413 132.094C78.4278 131.706 78.1464 131.296 77.8992 130.866C77.571 130.485 77.1789 130.161 76.7388 129.91C76.1084 129.55 75.3989 129.351 74.6728 129.329H69.1692C68.4435 129.352 67.7346 129.552 67.1044 129.912Z" fill="url(#paint2_linear_77_4988)"/>
<path d="M109.526 155.074C108.895 155.433 108.363 155.941 107.976 156.553C107.121 157.83 105.964 158.878 104.607 159.603C103.25 160.329 101.735 160.711 100.195 160.714C98.7972 160.716 97.4172 160.406 96.1554 159.807C94.8937 159.209 93.782 158.337 92.9016 157.256C92.0161 156.161 91.387 154.882 91.0602 153.514C90.7335 152.146 90.7173 150.723 91.0128 149.347C91.3954 147.557 92.2989 145.918 93.6105 144.637C94.9221 143.355 96.5835 142.487 98.3871 142.142C100.221 141.778 102.123 141.968 103.848 142.687C105.574 143.406 107.045 144.621 108.075 146.177C108.483 146.75 109.026 147.214 109.656 147.528C110.287 147.842 110.985 147.997 111.69 147.978H116.94C117.646 148.001 118.345 147.848 118.977 147.533C119.608 147.219 120.15 146.753 120.555 146.177C121.574 144.603 123.042 143.37 124.77 142.635C126.498 141.9 128.407 141.696 130.252 142.051C132.057 142.395 133.719 143.262 135.031 144.544C136.343 145.826 137.246 147.466 137.626 149.257C137.927 150.632 137.913 152.057 137.586 153.426C137.259 154.795 136.627 156.073 135.738 157.166C134.86 158.248 133.75 159.12 132.489 159.719C131.229 160.318 129.85 160.627 128.454 160.624C126.928 160.625 125.425 160.254 124.075 159.545C122.726 158.835 121.57 157.808 120.709 156.553C120.322 155.94 119.79 155.431 119.16 155.072C118.53 154.712 117.82 154.512 117.094 154.49H111.59C110.865 154.514 110.156 154.714 109.526 155.074Z" fill="url(#paint3_linear_77_4988)"/>
<path d="M148.01 100.916C148.012 103.398 149.002 105.777 150.762 107.531C152.523 109.286 154.91 110.273 157.399 110.275C159.889 110.273 162.276 109.286 164.036 107.531C165.796 105.777 166.786 103.398 166.789 100.916C166.786 98.4352 165.796 96.0562 164.036 94.3016C162.276 92.5471 159.889 91.5603 157.399 91.5579C154.91 91.5603 152.523 92.5471 150.762 94.3016C149.002 96.0562 148.012 98.4352 148.01 100.916Z" fill="url(#paint4_linear_77_4988)"/>
<path d="M64.5715 107.531C62.8111 105.777 61.8211 103.398 61.8187 100.916C61.8211 98.4352 62.8111 96.0562 64.5715 94.3016C66.3319 92.5471 68.7188 91.5603 71.2083 91.5579C73.6978 91.5603 76.0847 92.5471 77.8451 94.3016C79.6055 96.0562 80.5955 98.4352 80.5979 100.916C80.5955 103.398 79.6055 105.777 77.8451 107.531C76.0847 109.286 73.6978 110.273 71.2083 110.275C68.7188 110.273 66.3319 109.286 64.5715 107.531Z" fill="url(#paint5_linear_77_4988)"/>
<path d="M133.134 75.754C133.136 78.2354 134.126 80.6144 135.887 82.3689C137.647 84.1235 140.034 85.1102 142.524 85.1126C145.013 85.1102 147.4 84.1235 149.16 82.3689C150.921 80.6144 151.911 78.2354 151.913 75.754C151.911 73.2727 150.921 70.8937 149.16 69.1392C147.4 67.3846 145.013 66.3979 142.524 66.3955C140.034 66.3979 137.647 67.3846 135.887 69.1392C134.126 70.8937 133.136 73.2727 133.134 75.754Z" fill="white"/>
<path d="M48.4106 75.754C48.413 78.2354 49.4031 80.6144 51.1634 82.3689C52.9238 84.1235 55.3107 85.1102 57.8002 85.1126C60.2898 85.1102 62.6767 84.1235 64.437 82.3689C66.1974 80.6144 67.1874 78.2354 67.1898 75.754C67.1874 73.2727 66.1974 70.8937 64.437 69.1392C62.6767 67.3846 60.2898 66.3979 57.8002 66.3955C55.3107 66.3979 52.9238 67.3846 51.1634 69.1392C49.4031 70.8937 48.413 73.2727 48.4106 75.754Z" fill="white"/>
<path d="M133.134 126.078C133.136 128.56 134.126 130.939 135.887 132.693C137.647 134.448 140.034 135.434 142.524 135.437C145.013 135.434 147.4 134.448 149.16 132.693C150.921 130.939 151.911 128.56 151.913 126.078C151.911 123.597 150.921 121.218 149.16 119.463C147.4 117.709 145.013 116.722 142.524 116.72C140.034 116.722 137.647 117.709 135.887 119.463C134.126 121.218 133.136 123.597 133.134 126.078Z" fill="white"/>
<defs>
<linearGradient id="paint0_linear_77_4988" x1="48.3813" y1="35.8855" x2="145.288" y2="167.416" gradientUnits="userSpaceOnUse">
<stop stop-color="#00FAFF"/>
<stop offset="1" stop-color="#8BFF95"/>
</linearGradient>
<linearGradient id="paint1_linear_77_4988" x1="48.3813" y1="35.8855" x2="145.288" y2="167.416" gradientUnits="userSpaceOnUse">
<stop stop-color="#00FAFF"/>
<stop offset="1" stop-color="#8BFF95"/>
</linearGradient>
<linearGradient id="paint2_linear_77_4988" x1="48.3813" y1="35.8855" x2="145.288" y2="167.416" gradientUnits="userSpaceOnUse">
<stop stop-color="#00FAFF"/>
<stop offset="1" stop-color="#8BFF95"/>
</linearGradient>
<linearGradient id="paint3_linear_77_4988" x1="48.3813" y1="35.8855" x2="145.288" y2="167.416" gradientUnits="userSpaceOnUse">
<stop stop-color="#00FAFF"/>
<stop offset="1" stop-color="#8BFF95"/>
</linearGradient>
<linearGradient id="paint4_linear_77_4988" x1="48.3813" y1="35.8855" x2="145.288" y2="167.416" gradientUnits="userSpaceOnUse">
<stop stop-color="#00FAFF"/>
<stop offset="1" stop-color="#8BFF95"/>
</linearGradient>
<linearGradient id="paint5_linear_77_4988" x1="48.3813" y1="35.8855" x2="145.288" y2="167.416" gradientUnits="userSpaceOnUse">
<stop stop-color="#00FAFF"/>
<stop offset="1" stop-color="#8BFF95"/>
</linearGradient>
</defs>
</svg>
