<svg width="315" height="274" viewBox="0 0 315 274" fill="none" xmlns="http://www.w3.org/2000/svg">
<path d="M9.08797 225.677C9.08797 217.744 13.6253 212.654 21.3826 212.654C29.0666 212.654 33.604 217.744 33.604 225.677V238.7C33.604 246.633 29.0666 251.722 21.3826 251.722C13.6253 251.722 9.08797 246.633 9.08797 238.7V225.677ZM0.598633 225.977V238.4C0.598633 251.946 8.72263 259.43 21.3826 259.43C34.0426 259.43 42.092 251.946 42.092 238.4V225.977C42.092 212.43 34.0426 204.946 21.3826 204.946C8.72263 204.946 0.598633 212.43 0.598633 225.977Z" fill="#EAECEE"/>
<path d="M68.0452 252.321C61.8239 252.321 57.2145 247.681 57.2145 239.897C57.2145 232.113 61.8239 227.473 68.0452 227.473C74.3385 227.473 78.8759 232.113 78.8759 239.897C78.8759 247.755 74.3385 252.321 68.0452 252.321ZM49.3105 273.351H57.2879V253.143H58.0185C60.0692 256.362 63.7279 259.431 70.3865 259.431C79.2412 259.431 86.9252 251.946 86.9252 239.897C86.9252 227.922 79.2412 220.438 70.3865 220.438C63.7279 220.438 60.0692 223.506 57.8732 226.874H57.1412V221.486H49.3105V273.351Z" fill="#EAECEE"/>
<path d="M99.8358 236.155C100.494 230.991 104.006 227.473 109.569 227.473C114.91 227.473 118.497 230.841 118.936 236.155H99.8358ZM91.4932 239.747C91.4932 251.348 98.9572 259.431 109.934 259.431C119.888 259.431 124.132 253.593 126.253 249.701L119.594 246.033C118.13 249.252 115.569 252.321 110.081 252.321C104.3 252.321 100.056 248.204 99.7625 242.516H127.132V239.148C127.132 227.848 120.106 220.363 109.641 220.363C99.0305 220.363 91.4932 228.221 91.4932 239.747Z" fill="#EAECEE"/>
<path d="M133.639 221.486V258.383H141.615V239.449C141.615 231.814 145.495 227.549 151.495 227.549C156.836 227.549 159.984 230.467 159.984 236.679V258.383H168.034V236.23C168.034 226.799 162.179 220.813 153.91 220.813C147.031 220.813 143.811 223.955 142.2 227.174H141.47V221.486H133.639Z" fill="#EAECEE"/>
<path d="M176.734 205.993V258.383H185.224V236.005H207.544V228.221H185.224V213.852H209.008V205.993H176.734Z" fill="#EAECEE"/>
<path d="M213.422 238.25C213.422 251.797 221.545 259.43 234.353 259.43C246.866 259.43 254.112 252.021 254.112 239.822V232.413H232.377V239.822H245.768V240.794C245.768 247.456 241.964 251.722 234.353 251.722C226.669 251.722 221.912 246.633 221.912 238.325V226.052C221.912 217.744 226.669 212.654 234.353 212.654C241.817 212.654 245.33 217.145 245.33 223.357V224.329H253.818V223.506C253.818 212.354 247.013 204.945 234.353 204.945C221.618 204.945 213.422 212.58 213.422 226.201V238.25Z" fill="#EAECEE"/>
<path d="M270.373 238.325L277.473 213.253H278.205L285.23 238.325H270.373ZM271.252 205.993L256.176 258.383H264.886L268.324 246.184H287.35L290.792 258.383H299.428L284.352 205.993H271.252Z" fill="#EAECEE"/>
<path d="M295.472 205.811V207.325H298.557V215.902H300.178V207.325H303.264V205.811H295.472Z" fill="#EAECEE"/>
<path d="M304.312 205.811V215.902H305.891V207.541H306.03L308.454 215.902H310.752L313.162 207.541H313.304V215.902H314.898V205.811H312.094L309.668 214.215H309.527L307.118 205.811H304.312Z" fill="#EAECEE"/>
<path d="M203.123 73.7824C201.905 74.9971 200.253 75.6798 198.529 75.6811C196.806 75.6798 195.154 74.9971 193.935 73.7824C192.717 72.5678 192.031 70.9211 192.03 69.2024C192.031 67.4864 192.717 65.8384 193.935 64.6238C195.154 63.4091 196.806 62.7264 198.529 62.7251C200.253 62.7264 201.905 63.4091 203.123 64.6238C204.342 65.8384 205.027 67.4864 205.029 69.2024C205.027 70.9211 204.342 72.5678 203.123 73.7824ZM192.826 91.1998C191.607 92.4144 189.955 93.0971 188.233 93.0998C186.509 93.0971 184.857 92.4144 183.638 91.1998C182.419 89.9851 181.734 88.3384 181.733 86.6211C181.734 84.9037 182.419 83.2558 183.638 82.0424C184.857 80.8278 186.509 80.1438 188.233 80.1424C189.955 80.1438 191.607 80.8278 192.826 82.0424C194.045 83.2558 194.73 84.9037 194.731 86.6211C194.73 88.3384 194.045 89.9851 192.826 91.1998ZM184.814 105.552C184.587 106.5 184.151 107.384 183.535 108.141C182.927 108.89 182.158 109.494 181.286 109.908C180.414 110.322 179.458 110.537 178.491 110.534C177.435 110.536 176.395 110.278 175.461 109.788C174.527 109.296 173.727 108.586 173.131 107.717C172.863 107.293 172.495 106.941 172.058 106.692C171.622 106.442 171.131 106.304 170.629 106.289H166.818C166.317 106.305 165.825 106.444 165.39 106.693C164.954 106.941 164.585 107.293 164.317 107.717C163.725 108.601 162.925 109.326 161.985 109.828C161.045 110.33 159.997 110.594 158.93 110.597C157.963 110.598 157.007 110.384 156.134 109.969C155.261 109.556 154.491 108.952 153.882 108.202C153.269 107.445 152.833 106.56 152.607 105.613C152.381 104.666 152.37 103.681 152.574 102.729C152.839 101.489 153.465 100.354 154.373 99.4678C155.281 98.5811 156.43 97.9798 157.679 97.7411C158.949 97.4891 160.265 97.6198 161.459 98.1184C162.654 98.6158 163.673 99.4571 164.386 100.534C164.667 100.93 165.043 101.252 165.481 101.469C165.917 101.686 166.401 101.794 166.887 101.781H170.522C171.011 101.796 171.494 101.69 171.931 101.473C172.369 101.256 172.745 100.933 173.025 100.534C173.73 99.4451 174.746 98.5904 175.942 98.0824C177.138 97.5731 178.459 97.4318 179.737 97.6784C180.986 97.9158 182.137 98.5158 183.045 99.4038C183.954 100.292 184.578 101.426 184.842 102.666C185.05 103.618 185.039 104.604 184.814 105.552ZM149.127 93.1798C148.161 93.1811 147.206 92.9664 146.333 92.5518C145.458 92.1371 144.689 91.5331 144.079 90.7851C143.863 90.5171 143.667 90.2331 143.497 89.9357C143.269 89.6717 142.998 89.4478 142.693 89.2731C142.257 89.0238 141.766 88.8864 141.263 88.8718H137.454C136.951 88.8878 136.461 89.0264 136.025 89.2744C135.589 89.5238 135.219 89.8758 134.951 90.2984C134.359 91.1824 133.558 91.9078 132.619 92.4104C131.679 92.9131 130.631 93.1771 129.565 93.1798C128.597 93.1811 127.642 92.9664 126.769 92.5518C125.895 92.1371 125.126 91.5331 124.517 90.7851C123.903 90.0278 123.467 89.1424 123.242 88.1958C123.015 87.2478 123.005 86.2624 123.209 85.3104C123.474 84.0718 124.099 82.9371 125.007 82.0504C125.915 81.1624 127.065 80.5624 128.314 80.3224C129.583 80.0717 130.899 80.2024 132.094 80.6998C133.289 81.1984 134.307 82.0384 135.019 83.1158C135.302 83.5131 135.678 83.8344 136.115 84.0518C136.551 84.2691 137.034 84.3758 137.522 84.3638H141.157C141.645 84.3798 142.129 84.2731 142.566 84.0558C143.003 83.8371 143.379 83.5144 143.659 83.1158C144.365 82.0278 145.381 81.1731 146.577 80.6638C147.773 80.1558 149.095 80.0144 150.373 80.2598C151.621 80.4984 152.771 81.0984 153.679 81.9864C154.067 82.3651 154.405 82.7904 154.683 83.2491C154.953 83.5851 155.291 83.8584 155.678 84.0518C156.114 84.2691 156.598 84.3758 157.086 84.3638H160.721C161.207 84.3798 161.693 84.2731 162.13 84.0558C162.566 83.8371 162.942 83.5144 163.222 83.1158C163.929 82.0278 164.943 81.1731 166.141 80.6638C167.337 80.1558 168.658 80.0144 169.934 80.2598C171.183 80.4984 172.335 81.0984 173.243 81.9864C174.151 82.8731 174.775 84.0078 175.041 85.2478C175.247 86.1998 175.238 87.1864 175.011 88.1344C174.785 89.0824 174.347 89.9664 173.733 90.7238C173.125 91.4718 172.355 92.0757 171.485 92.4904C170.611 92.9051 169.657 93.1184 168.69 93.1171C167.634 93.1171 166.594 92.8611 165.659 92.3691C164.725 91.8784 163.925 91.1678 163.329 90.2984C163.061 89.8744 162.693 89.5224 162.257 89.2731C161.819 89.0238 161.329 88.8864 160.826 88.8718H157.017C156.514 88.8878 156.023 89.0264 155.587 89.2744C155.151 89.5238 154.782 89.8758 154.514 90.2984C153.923 91.1824 153.122 91.9078 152.182 92.4104C151.243 92.9131 150.194 93.1771 149.127 93.1798ZM143.938 108.617C142.721 109.832 141.067 110.516 139.345 110.517C137.622 110.516 135.969 109.832 134.75 108.617C133.533 107.404 132.846 105.756 132.845 104.038C132.846 102.321 133.533 100.674 134.75 99.4598C135.969 98.2451 137.622 97.5611 139.345 97.5598C141.067 97.5611 142.721 98.2451 143.938 99.4598C145.158 100.674 145.843 102.321 145.845 104.038C145.843 105.756 145.158 107.404 143.938 108.617ZM114.691 73.7824C113.473 72.5678 112.789 70.9211 112.786 69.2038C112.789 67.4864 113.473 65.8384 114.691 64.6238C115.91 63.4091 117.563 62.7264 119.286 62.7251C121.01 62.7264 122.662 63.4091 123.879 64.6238C125.098 65.8384 125.785 67.4864 125.786 69.2038C125.785 70.9211 125.098 72.5678 123.879 73.7824C122.662 74.9971 121.01 75.6798 119.286 75.6811C117.563 75.6798 115.91 74.9971 114.691 73.7824ZM124.989 47.2064C126.207 45.9918 127.861 45.3091 129.583 45.3064C131.307 45.3091 132.959 45.9918 134.178 47.2064C135.397 48.4211 136.082 50.0677 136.083 51.7851C136.082 53.5024 135.397 55.1504 134.178 56.3638C132.959 57.5784 131.307 58.2624 129.583 58.2638C127.861 58.2624 126.207 57.5784 124.989 56.3638C123.77 55.1504 123.085 53.5024 123.083 51.7851C123.085 50.0677 123.77 48.4211 124.989 47.2064ZM133.011 33.0171C133.275 31.7784 133.901 30.6437 134.81 29.7571C135.717 28.8691 136.867 28.2691 138.115 28.0291C139.386 27.7784 140.702 27.9091 141.897 28.4064C143.091 28.9051 144.109 29.7451 144.822 30.8224C145.105 31.2197 145.481 31.5411 145.917 31.7584C146.353 31.9758 146.837 32.0824 147.325 32.0704H150.959C151.447 32.0851 151.931 31.9798 152.369 31.7624C152.805 31.5438 153.181 31.2211 153.461 30.8224C154.167 29.7331 155.182 28.8798 156.379 28.3704C157.575 27.8624 158.897 27.7211 160.174 27.9664C161.423 28.2051 162.574 28.8051 163.482 29.6931C164.39 30.5797 165.015 31.7144 165.279 32.9557C165.486 33.9077 165.477 34.8931 165.25 35.8411C165.025 36.7877 164.587 37.6731 163.971 38.4291C163.363 39.1784 162.595 39.7824 161.723 40.1971C160.85 40.6117 159.895 40.8251 158.929 40.8237C157.873 40.8237 156.833 40.5678 155.898 40.0758C154.965 39.5851 154.163 38.8744 153.567 38.0051C153.299 37.5811 152.931 37.2291 152.495 36.9798C152.059 36.7318 151.569 36.5931 151.066 36.5771H147.255C146.754 36.5944 146.262 36.7331 145.826 36.9811C145.39 37.2304 145.022 37.5824 144.754 38.0051C144.162 38.8891 143.361 39.6144 142.422 40.1171C141.482 40.6197 140.433 40.8837 139.367 40.8864C138.401 40.8877 137.445 40.6731 136.571 40.2584C135.698 39.8438 134.929 39.2411 134.318 38.4917C133.706 37.7344 133.27 36.8491 133.043 35.9024C132.818 34.9544 132.806 33.9691 133.011 33.0171ZM145.365 69.2024C145.363 70.9211 144.678 72.5678 143.459 73.7824C142.241 74.9971 140.589 75.6798 138.865 75.6811C137.142 75.6798 135.489 74.9971 134.27 73.7824C133.053 72.5678 132.367 70.9211 132.365 69.2024C132.367 67.4864 133.053 65.8384 134.27 64.6238C135.489 63.4091 137.142 62.7264 138.865 62.7251C140.589 62.7264 142.241 63.4091 143.459 64.6238C144.678 65.8384 145.363 67.4864 145.365 69.2024ZM169.955 45.4251C171.206 45.6624 172.355 46.2638 173.263 47.1504C174.173 48.0384 174.797 49.1731 175.061 50.4131C175.269 51.3651 175.259 52.3518 175.033 53.2984C174.806 54.2464 174.369 55.1318 173.754 55.8878C173.146 56.6371 172.377 57.2411 171.505 57.6544C170.631 58.0691 169.678 58.2838 168.711 58.2824C167.654 58.2824 166.614 58.0251 165.679 57.5344C164.746 57.0437 163.946 56.3318 163.349 55.4638C163.082 55.0398 162.714 54.6864 162.278 54.4384C161.841 54.1891 161.35 54.0504 160.847 54.0357H157.038C156.535 54.0517 156.045 54.1904 155.609 54.4398C155.173 54.6891 154.803 55.0398 154.535 55.4638C153.943 56.3478 153.143 57.0731 152.203 57.5758C151.263 58.0771 150.215 58.3411 149.149 58.3437C148.182 58.3451 147.226 58.1304 146.353 57.7158C145.479 57.3024 144.71 56.6984 144.101 55.9504C143.487 55.1917 143.051 54.3064 142.826 53.3597C142.599 52.4131 142.589 51.4277 142.793 50.4757C143.058 49.2357 143.683 48.1024 144.591 47.2144C145.499 46.3277 146.65 45.7264 147.898 45.4877C149.167 45.2357 150.485 45.3678 151.678 45.8651C152.873 46.3624 153.891 47.2038 154.603 48.2811C154.886 48.6771 155.262 48.9984 155.699 49.2158C156.135 49.4331 156.619 49.5411 157.106 49.5277H160.741C161.23 49.5437 161.714 49.4371 162.151 49.2197C162.587 49.0024 162.963 48.6798 163.243 48.2811C163.949 47.1918 164.965 46.3384 166.161 45.8291C167.357 45.3197 168.679 45.1798 169.955 45.4251ZM173.877 29.7891C175.095 28.5744 176.747 27.8918 178.471 27.8904C180.194 27.8918 181.846 28.5744 183.066 29.7891C184.285 31.0037 184.969 32.6504 184.971 34.3678C184.969 36.0864 184.285 37.7331 183.066 38.9478C181.846 40.1611 180.194 40.8451 178.471 40.8464C176.747 40.8451 175.095 40.1611 173.877 38.9478C172.658 37.7331 171.973 36.0864 171.971 34.3678C171.973 32.6504 172.658 31.0037 173.877 29.7891ZM184.491 69.2038C184.49 70.9211 183.803 72.5678 182.586 73.7824C181.367 74.9971 179.714 75.6798 177.991 75.6811C176.267 75.6798 174.615 74.9971 173.398 73.7824C172.178 72.5678 171.493 70.9211 171.491 69.2038C171.493 67.4864 172.178 65.8384 173.398 64.6238C174.615 63.4091 176.267 62.7264 177.991 62.7251C179.714 62.7264 181.367 63.4091 182.586 64.6238C183.803 65.8384 184.49 67.4864 184.491 69.2038ZM192.826 47.2064C194.045 48.4211 194.73 50.0677 194.731 51.7851C194.73 53.5024 194.045 55.1504 192.826 56.3638C191.607 57.5784 189.955 58.2624 188.233 58.2638C186.509 58.2624 184.857 57.5784 183.638 56.3638C182.419 55.1504 181.734 53.5024 181.733 51.7851C181.734 50.0677 182.419 48.4211 183.638 47.2064C184.857 45.9918 186.509 45.3091 188.233 45.3064C189.955 45.3091 191.607 45.9918 192.826 47.2064ZM200.278 -0.000248267H117.538C102.154 -0.000248267 89.6846 12.4704 89.6846 27.8531V110.594C89.6846 125.977 102.154 138.448 117.538 138.448H200.278C215.661 138.448 228.131 125.977 228.131 110.594V27.8531C228.131 12.4704 215.661 -0.000248267 200.278 -0.000248267Z" fill="#EAECEE"/>
</svg>
